<?xml version="1.0" encoding="utf-8" standalone="no"?>
<!DOCTYPE svg PUBLIC "-//W3C//DTD SVG 1.1//EN"
  "http://www.w3.org/Graphics/SVG/1.1/DTD/svg11.dtd">
<svg xmlns:xlink="http://www.w3.org/1999/xlink" width="691.2pt" height="230.4pt" viewBox="0 0 691.2 230.4" xmlns="http://www.w3.org/2000/svg" version="1.1">
 <metadata>
  <rdf:RDF xmlns:dc="http://purl.org/dc/elements/1.1/" xmlns:cc="http://creativecommons.org/ns#" xmlns:rdf="http://www.w3.org/1999/02/22-rdf-syntax-ns#">
   <cc:Work>
    <dc:type rdf:resource="http://purl.org/dc/dcmitype/StillImage"/>
    <dc:date>2026-05-30T15:57:01.289815</dc:date>
    <dc:format>image/svg+xml</dc:format>
    <dc:creator>
     <cc:Agent>
      <dc:title>Matplotlib v3.10.9, https://matplotlib.org/</dc:title>
     </cc:Agent>
    </dc:creator>
   </cc:Work>
  </rdf:RDF>
 </metadata>
 <defs>
  <style type="text/css">*{stroke-linejoin: round; stroke-linecap: butt}</style>
 </defs>
 <g id="figure_1">
  <g id="patch_1">
   <path d="M 0 230.4 
L 691.2 230.4 
L 691.2 0 
L 0 0 
L 0 230.4 
z
" style="fill: none"/>
  </g>
  <g id="axes_1">
   <g id="patch_2">
    <path d="M 179.712 26.439344 
C 169.753854 26.439344 159.866337 28.115166 150.464338 31.39649 
C 141.062339 34.677815 132.279227 39.518095 124.483549 45.71423 
C 116.687872 51.910365 109.990212 59.37446 104.671609 67.793316 
C 99.353006 76.212172 95.488905 85.466366 93.241449 95.167583 
C 90.993992 104.8688 90.395059 114.879427 91.469783 124.779409 
C 92.544506 134.679391 95.27764 144.328295 99.554501 153.321245 
C 103.831361 162.314194 109.591279 170.523622 116.592564 177.605055 
C 123.593849 184.686487 131.737186 190.539471 140.680874 194.918412 
C 149.624562 199.297353 159.241733 202.140134 169.128841 203.327469 
C 179.01595 204.514804 189.032745 204.029851 198.758914 201.892959 
C 208.485083 199.756066 217.782658 195.997547 226.261505 190.775112 
C 234.740352 185.552677 242.280197 178.940407 248.56466 171.215758 
C 254.849124 163.49111 259.78906 154.763659 263.177185 145.399617 
C 266.56531 136.035575 268.353563 126.167773 268.466906 116.210271 
C 268.580249 106.25277 267.017076 96.34682 263.842977 86.908081 
C 260.668879 77.469343 255.928881 68.631709 249.821878 60.766012 
L 218.973531 84.716967 
C 222.393453 89.121757 225.047852 94.070832 226.825347 99.356526 
C 228.602843 104.642219 229.47822 110.189551 229.414747 115.765752 
C 229.351275 121.341953 228.349854 126.867922 226.452504 132.111785 
C 224.555154 137.355649 221.788789 142.243021 218.26949 146.568825 
C 214.75019 150.894628 210.527877 154.597499 205.779723 157.522063 
C 201.031569 160.446627 195.824927 162.551397 190.378272 163.748057 
C 184.931617 164.944716 179.322212 165.21629 173.785431 164.551383 
C 168.24865 163.886475 162.863035 162.294518 157.85457 159.842311 
C 152.846104 157.390104 148.285836 154.112433 144.365116 150.146831 
C 140.444396 146.181228 137.218842 141.583949 134.8238 136.547897 
C 132.428758 131.511845 130.898203 126.108459 130.296358 120.564469 
C 129.694513 115.020479 130.029915 109.414528 131.288491 103.981846 
C 132.547067 98.549165 134.710963 93.366817 137.689381 88.652257 
C 140.667799 83.937698 144.418488 79.757804 148.784068 76.287969 
C 153.149647 72.818133 158.06819 70.107576 163.333309 68.270034 
C 168.598429 66.432493 174.135438 65.494033 179.712 65.494033 
z
" style="fill: #9b4f96; stroke: #ffffff; stroke-width: 0.8; stroke-linejoin: miter"/>
   </g>
   <g id="patch_3">
    <path d="M 249.821873 60.766003 
C 245.68676 55.440062 240.95818 50.602602 235.727744 46.34733 
C 230.497308 42.092058 224.799007 38.446622 218.743148 35.481599 
L 201.569443 70.557695 
C 204.960724 72.218109 208.151772 74.259553 211.080817 76.642505 
C 214.009861 79.025457 216.657866 81.734434 218.973529 84.716961 
z
" style="fill: #f1e05a; stroke: #ffffff; stroke-width: 0.8; stroke-linejoin: miter"/>
   </g>
   <g id="patch_4">
    <path d="M 218.743148 35.481599 
C 216.322987 34.296659 213.850101 33.22253 211.332215 32.262576 
C 208.81433 31.302622 206.254052 30.457832 203.659305 29.730821 
L 193.122491 67.33726 
C 194.575549 67.744386 196.009305 68.217468 197.419321 68.755042 
C 198.829336 69.292617 200.214153 69.894129 201.569443 70.557695 
z
" style="fill: #3572a5; stroke: #ffffff; stroke-width: 0.8; stroke-linejoin: miter"/>
   </g>
   <g id="patch_5">
    <path d="M 203.659305 29.730821 
C 201.064564 29.00381 198.438062 28.395334 195.78796 27.907286 
C 193.137859 27.419238 190.466908 27.052127 187.783407 26.80709 
L 184.231988 65.699971 
C 185.734748 65.837191 187.230481 66.042773 188.714538 66.31608 
C 190.198595 66.589387 191.669436 66.930134 193.122491 67.33726 
z
" style="fill: #f34b7d; stroke: #ffffff; stroke-width: 0.8; stroke-linejoin: miter"/>
   </g>
   <g id="patch_6">
    <path d="M 187.783407 26.80709 
C 186.441836 26.684588 185.09763 26.592638 183.751875 26.531326 
C 182.406119 26.470014 181.059164 26.439344 179.712012 26.439344 
L 179.712007 65.494033 
C 180.466412 65.494033 181.220707 65.511208 181.97433 65.545542 
C 182.727953 65.579877 183.480708 65.631369 184.231988 65.699971 
z
" style="fill: #6e6e6e; stroke: #ffffff; stroke-width: 0.8; stroke-linejoin: miter"/>
   </g>
   <g id="text_1">
    <!-- 66 -->
    <g style="fill: #4f46e5" transform="translate(159.312 117.449148) scale(0.34 -0.34)">
     <defs>
      <path id="JetBrainsMono-Bold-36" d="M 1920 -64 
Q 1440 -64 1085 128 
Q 730 320 534 669 
Q 339 1018 339 1485 
Q 339 1760 457 2115 
Q 576 2470 781 2835 
L 1792 4672 
L 2701 4672 
L 1498 2611 
L 1523 2598 
Q 1619 2733 1804 2809 
Q 1990 2886 2208 2886 
Q 2598 2886 2889 2710 
Q 3181 2534 3341 2214 
Q 3501 1894 3501 1459 
Q 3501 998 3305 656 
Q 3110 314 2755 125 
Q 2400 -64 1920 -64 
z
M 1920 614 
Q 2278 614 2496 841 
Q 2714 1069 2714 1446 
Q 2714 1830 2496 2057 
Q 2278 2285 1920 2285 
Q 1562 2285 1344 2057 
Q 1126 1830 1126 1446 
Q 1126 1069 1344 841 
Q 1562 614 1920 614 
z
" transform="scale(0.015625)"/>
     </defs>
     <use xlink:href="#JetBrainsMono-Bold-36"/>
     <use xlink:href="#JetBrainsMono-Bold-36" transform="translate(59.999985 0)"/>
    </g>
   </g>
   <g id="text_2">
    <!-- solved -->
    <g style="fill: #667085" transform="translate(159.912 132.426705) scale(0.11 -0.11)">
     <defs>
      <path id="JetBrainsMono-Regular-73" d="M 1779 -51 
Q 1190 -51 867 214 
Q 544 480 544 966 
L 1120 966 
Q 1120 723 1293 585 
Q 1466 448 1779 448 
L 2061 448 
Q 2381 448 2557 589 
Q 2733 730 2733 986 
Q 2733 1440 2317 1498 
L 1344 1638 
Q 986 1690 787 1936 
Q 589 2182 589 2586 
Q 589 3046 905 3308 
Q 1222 3571 1779 3571 
L 2061 3571 
Q 2573 3571 2896 3318 
Q 3219 3066 3245 2656 
L 2662 2656 
Q 2650 2842 2486 2963 
Q 2323 3085 2061 3085 
L 1779 3085 
Q 1485 3085 1318 2950 
Q 1152 2816 1152 2586 
Q 1152 2214 1491 2163 
L 2400 2035 
Q 3296 1907 3296 986 
Q 3296 493 2973 221 
Q 2650 -51 2061 -51 
L 1779 -51 
z
" transform="scale(0.015625)"/>
      <path id="JetBrainsMono-Regular-6f" d="M 1920 -51 
Q 1286 -51 912 320 
Q 538 691 538 1357 
L 538 2163 
Q 538 2835 909 3203 
Q 1280 3571 1920 3571 
Q 2560 3571 2931 3203 
Q 3302 2835 3302 2163 
L 3302 1357 
Q 3302 691 2928 320 
Q 2554 -51 1920 -51 
z
M 1920 461 
Q 2298 461 2512 672 
Q 2726 883 2726 1293 
L 2726 2227 
Q 2726 2637 2512 2848 
Q 2298 3059 1920 3059 
Q 1549 3059 1331 2848 
Q 1114 2637 1114 2227 
L 1114 1293 
Q 1114 883 1331 672 
Q 1549 461 1920 461 
z
" transform="scale(0.015625)"/>
      <path id="JetBrainsMono-Regular-6c" d="M 2432 0 
Q 1965 0 1686 272 
Q 1408 544 1408 992 
L 1408 4147 
L 192 4147 
L 192 4672 
L 1984 4672 
L 1984 992 
Q 1984 774 2105 649 
Q 2227 525 2432 525 
L 3520 525 
L 3520 0 
L 2432 0 
z
" transform="scale(0.015625)"/>
      <path id="JetBrainsMono-Regular-76" d="M 1542 0 
L 346 3520 
L 966 3520 
L 1734 1152 
Q 1805 941 1856 745 
Q 1907 550 1933 442 
Q 1965 550 2009 745 
Q 2054 941 2118 1152 
L 2886 3520 
L 3494 3520 
L 2298 0 
L 1542 0 
z
" transform="scale(0.015625)"/>
      <path id="JetBrainsMono-Regular-65" d="M 1920 -64 
Q 1299 -64 918 310 
Q 538 685 538 1344 
L 538 2176 
Q 538 2835 918 3209 
Q 1299 3584 1920 3584 
Q 2336 3584 2646 3417 
Q 2957 3251 3129 2950 
Q 3302 2650 3302 2240 
L 3302 1613 
L 1101 1613 
L 1101 1280 
Q 1101 890 1325 662 
Q 1549 435 1920 435 
Q 2240 435 2448 560 
Q 2656 685 2701 896 
L 3277 896 
Q 3219 454 2848 195 
Q 2477 -64 1920 -64 
z
M 1101 2061 
L 2739 2061 
L 2739 2240 
Q 2739 2656 2524 2883 
Q 2310 3110 1920 3110 
Q 1530 3110 1315 2883 
Q 1101 2656 1101 2240 
L 1101 2061 
z
" transform="scale(0.015625)"/>
      <path id="JetBrainsMono-Regular-64" d="M 1715 -64 
Q 1190 -64 873 288 
Q 557 640 557 1242 
L 557 2272 
Q 557 2880 870 3232 
Q 1184 3584 1715 3584 
Q 2112 3584 2371 3385 
Q 2630 3187 2682 2848 
L 2688 2848 
L 2675 3648 
L 2675 4672 
L 3251 4672 
L 3251 0 
L 2675 0 
L 2675 672 
L 2669 672 
Q 2624 326 2368 131 
Q 2112 -64 1715 -64 
z
M 1907 435 
Q 2266 435 2470 659 
Q 2675 883 2675 1280 
L 2675 2240 
Q 2675 2637 2470 2861 
Q 2266 3085 1907 3085 
Q 1542 3085 1337 2896 
Q 1133 2707 1133 2272 
L 1133 1248 
Q 1133 819 1337 627 
Q 1542 435 1907 435 
z
" transform="scale(0.015625)"/>
     </defs>
     <use xlink:href="#JetBrainsMono-Regular-73"/>
     <use xlink:href="#JetBrainsMono-Regular-6f" transform="translate(59.999985 0)"/>
     <use xlink:href="#JetBrainsMono-Regular-6c" transform="translate(119.999969 0)"/>
     <use xlink:href="#JetBrainsMono-Regular-76" transform="translate(179.999954 0)"/>
     <use xlink:href="#JetBrainsMono-Regular-65" transform="translate(239.999939 0)"/>
     <use xlink:href="#JetBrainsMono-Regular-64" transform="translate(299.999924 0)"/>
    </g>
   </g>
  </g>
  <g id="axes_2">
   <g id="patch_7">
    <path d="M 362.520576 213.90336 
L 661.118976 213.90336 
Q 665.432064 213.90336 665.432064 211.20768 
L 665.432064 200.01024 
Q 665.432064 197.31456 661.118976 197.31456 
L 362.520576 197.31456 
Q 358.207488 197.31456 358.207488 200.01024 
L 358.207488 211.20768 
Q 358.207488 213.90336 362.520576 213.90336 
z
" clip-path="url(#p73b7e4b685)" style="fill: #d0d5dd; opacity: 0.4"/>
   </g>
   <g id="line2d_1">
    <path d="M 358.87104 111.46752 
L 664.10496 111.46752 
" clip-path="url(#p73b7e4b685)" style="fill: none; stroke: #d0d5dd; stroke-width: 0.8; stroke-linecap: square"/>
   </g>
   <g id="line2d_2">
    <path d="M 358.87104 137.38752 
L 664.10496 137.38752 
" clip-path="url(#p73b7e4b685)" style="fill: none; stroke: #d0d5dd; stroke-width: 0.8; stroke-linecap: square"/>
   </g>
   <g id="line2d_3">
    <path d="M 358.87104 163.30752 
L 664.10496 163.30752 
" clip-path="url(#p73b7e4b685)" style="fill: none; stroke: #d0d5dd; stroke-width: 0.8; stroke-linecap: square"/>
   </g>
   <g id="patch_8">
    <path d="M 362.454221 212.45184 
L 616.284979 212.45184 
Q 619.270963 212.45184 619.270963 210.5856 
L 619.270963 200.63232 
Q 619.270963 198.76608 616.284979 198.76608 
L 362.454221 198.76608 
Q 359.468237 198.76608 359.468237 200.63232 
L 359.468237 210.5856 
Q 359.468237 212.45184 362.454221 212.45184 
z
" clip-path="url(#p73b7e4b685)" style="fill: #9b4f96"/>
   </g>
   <g id="patch_9">
    <path d="M 623.451341 212.45184 
L 638.403379 212.45184 
Q 641.389363 212.45184 641.389363 210.5856 
L 641.389363 200.63232 
Q 641.389363 198.76608 638.403379 198.76608 
L 623.451341 198.76608 
Q 620.465357 198.76608 620.465357 200.63232 
L 620.465357 210.5856 
Q 620.465357 212.45184 623.451341 212.45184 
z
" clip-path="url(#p73b7e4b685)" style="fill: #f1e05a"/>
   </g>
   <g id="patch_10">
    <path d="M 645.569741 212.45184 
L 647.250739 212.45184 
Q 650.236723 212.45184 650.236723 210.5856 
L 650.236723 200.63232 
Q 650.236723 198.76608 647.250739 198.76608 
L 645.569741 198.76608 
Q 642.583757 198.76608 642.583757 200.63232 
L 642.583757 210.5856 
Q 642.583757 212.45184 645.569741 212.45184 
z
" clip-path="url(#p73b7e4b685)" style="fill: #3572a5"/>
   </g>
   <g id="patch_11">
    <path d="M 654.417101 212.45184 
L 656.098099 212.45184 
Q 659.084083 212.45184 659.084083 210.5856 
L 659.084083 200.63232 
Q 659.084083 198.76608 656.098099 198.76608 
L 654.417101 198.76608 
Q 651.431117 198.76608 651.431117 200.63232 
L 651.431117 210.5856 
Q 651.431117 212.45184 654.417101 212.45184 
z
" clip-path="url(#p73b7e4b685)" style="fill: #f34b7d"/>
   </g>
   <g id="patch_12">
    <path d="M 663.264461 212.45184 
L 660.521779 212.45184 
Q 663.507763 212.45184 663.507763 210.5856 
L 663.507763 200.63232 
Q 663.507763 198.76608 660.521779 198.76608 
L 663.264461 198.76608 
Q 660.278477 198.76608 660.278477 200.63232 
L 660.278477 210.5856 
Q 660.278477 212.45184 663.264461 212.45184 
z
" clip-path="url(#p73b7e4b685)" style="fill: #6e6e6e"/>
   </g>
   <g id="text_3">
    <!-- sernn -->
    <g style="fill: #344054" transform="translate(358.87104 39.131) scale(0.25 -0.25)">
     <defs>
      <path id="JetBrainsMono-Bold-73" d="M 1773 -58 
Q 1146 -58 781 227 
Q 416 512 416 998 
L 1203 998 
Q 1203 794 1353 685 
Q 1504 576 1773 576 
L 2054 576 
Q 2342 576 2499 685 
Q 2656 794 2656 998 
Q 2656 1190 2547 1283 
Q 2438 1376 2214 1408 
L 1338 1523 
Q 915 1581 688 1849 
Q 461 2118 461 2547 
Q 461 3046 793 3312 
Q 1126 3578 1754 3578 
L 2048 3578 
Q 2637 3578 2995 3309 
Q 3354 3040 3366 2592 
L 2573 2592 
Q 2566 2758 2425 2857 
Q 2285 2957 2048 2957 
L 1754 2957 
Q 1498 2957 1363 2851 
Q 1229 2746 1229 2566 
Q 1229 2406 1328 2329 
Q 1427 2253 1619 2234 
L 2445 2118 
Q 2931 2061 3177 1776 
Q 3424 1491 3424 1011 
Q 3424 499 3075 220 
Q 2726 -58 2054 -58 
L 1773 -58 
z
" transform="scale(0.015625)"/>
      <path id="JetBrainsMono-Bold-65" d="M 1926 -64 
Q 1478 -64 1145 109 
Q 813 282 630 598 
Q 448 915 448 1344 
L 448 2176 
Q 448 2605 630 2921 
Q 813 3238 1145 3411 
Q 1478 3584 1926 3584 
Q 2368 3584 2697 3411 
Q 3027 3238 3209 2928 
Q 3392 2618 3392 2202 
L 3392 1562 
L 1216 1562 
L 1216 1318 
Q 1216 960 1401 777 
Q 1587 595 1926 595 
Q 2176 595 2352 681 
Q 2528 768 2560 934 
L 3354 934 
Q 3270 480 2880 208 
Q 2490 -64 1926 -64 
z
M 1216 2202 
L 1216 2080 
L 2624 2086 
L 2624 2208 
Q 2624 2573 2445 2771 
Q 2266 2970 1926 2970 
Q 1574 2970 1395 2768 
Q 1216 2566 1216 2202 
z
" transform="scale(0.015625)"/>
      <path id="JetBrainsMono-Bold-72" d="M 621 0 
L 621 3520 
L 1402 3520 
L 1402 2835 
Q 1466 3181 1718 3382 
Q 1971 3584 2374 3584 
Q 2912 3584 3213 3238 
Q 3514 2893 3514 2272 
L 3514 1939 
L 2714 1939 
L 2714 2234 
Q 2714 2554 2547 2723 
Q 2381 2893 2074 2893 
Q 1754 2893 1587 2701 
Q 1421 2509 1421 2157 
L 1421 0 
L 621 0 
z
" transform="scale(0.015625)"/>
      <path id="JetBrainsMono-Bold-6e" d="M 493 0 
L 493 3520 
L 1274 3520 
L 1274 2861 
Q 1338 3194 1587 3389 
Q 1837 3584 2221 3584 
Q 2739 3584 3049 3238 
Q 3360 2893 3360 2310 
L 3360 0 
L 2560 0 
L 2560 2214 
Q 2560 2541 2390 2717 
Q 2221 2893 1933 2893 
Q 1632 2893 1462 2713 
Q 1293 2534 1293 2202 
L 1293 0 
L 493 0 
z
" transform="scale(0.015625)"/>
     </defs>
     <use xlink:href="#JetBrainsMono-Bold-73"/>
     <use xlink:href="#JetBrainsMono-Bold-65" transform="translate(59.999985 0)"/>
     <use xlink:href="#JetBrainsMono-Bold-72" transform="translate(119.999969 0)"/>
     <use xlink:href="#JetBrainsMono-Bold-6e" transform="translate(179.999954 0)"/>
     <use xlink:href="#JetBrainsMono-Bold-6e" transform="translate(239.999939 0)"/>
    </g>
   </g>
   <g id="text_4">
    <!-- Problem Solved -->
    <g style="fill: #4f46e5" transform="translate(554.90496 64.8614) scale(0.13 -0.13)">
     <defs>
      <path id="JetBrainsMono-Bold-50" d="M 493 0 
L 493 4672 
L 2048 4672 
Q 2515 4672 2864 4493 
Q 3213 4314 3405 3990 
Q 3597 3667 3597 3232 
Q 3597 2797 3405 2473 
Q 3213 2150 2864 1971 
Q 2515 1792 2048 1792 
L 1293 1792 
L 1293 0 
L 493 0 
z
M 1293 2496 
L 2048 2496 
Q 2387 2496 2585 2701 
Q 2784 2906 2784 3232 
Q 2784 3558 2585 3763 
Q 2387 3968 2048 3968 
L 1293 3968 
L 1293 2496 
z
" transform="scale(0.015625)"/>
      <path id="JetBrainsMono-Bold-6f" d="M 1920 -58 
Q 1242 -58 845 323 
Q 448 704 448 1350 
L 448 2170 
Q 448 2822 845 3200 
Q 1242 3578 1920 3578 
Q 2598 3578 2995 3200 
Q 3392 2822 3392 2170 
L 3392 1350 
Q 3392 704 2995 323 
Q 2598 -58 1920 -58 
z
M 1920 640 
Q 2240 640 2416 816 
Q 2592 992 2592 1325 
L 2592 2195 
Q 2592 2528 2416 2704 
Q 2240 2880 1920 2880 
Q 1600 2880 1424 2704 
Q 1248 2528 1248 2195 
L 1248 1325 
Q 1248 992 1424 816 
Q 1600 640 1920 640 
z
" transform="scale(0.015625)"/>
      <path id="JetBrainsMono-Bold-62" d="M 2240 -64 
Q 1869 -64 1619 121 
Q 1370 307 1274 640 
L 1274 0 
L 493 0 
L 493 4672 
L 1293 4672 
L 1293 3686 
L 1267 2880 
Q 1370 3213 1622 3398 
Q 1875 3584 2240 3584 
Q 2758 3584 3072 3219 
Q 3386 2854 3386 2234 
L 3386 1280 
Q 3386 666 3069 301 
Q 2752 -64 2240 -64 
z
M 1939 627 
Q 2246 627 2416 793 
Q 2586 960 2586 1306 
L 2586 2214 
Q 2586 2560 2416 2726 
Q 2246 2893 1939 2893 
Q 1632 2893 1462 2707 
Q 1293 2522 1293 2182 
L 1293 1338 
Q 1293 998 1462 812 
Q 1632 627 1939 627 
z
" transform="scale(0.015625)"/>
      <path id="JetBrainsMono-Bold-6c" d="M 2490 0 
Q 1965 0 1648 313 
Q 1331 627 1331 1139 
L 1331 3949 
L 173 3949 
L 173 4672 
L 2131 4672 
L 2131 1158 
Q 2131 960 2243 841 
Q 2355 723 2547 723 
L 3578 723 
L 3578 0 
L 2490 0 
z
" transform="scale(0.015625)"/>
      <path id="JetBrainsMono-Bold-6d" d="M 301 0 
L 301 3520 
L 966 3520 
L 966 3008 
L 986 3008 
Q 1005 3264 1165 3424 
Q 1325 3584 1568 3584 
Q 1805 3584 1971 3433 
Q 2138 3283 2195 3027 
Q 2221 3283 2384 3433 
Q 2547 3584 2797 3584 
Q 3117 3584 3328 3331 
Q 3539 3078 3539 2682 
L 3539 0 
L 2835 0 
L 2835 2624 
Q 2835 2797 2755 2896 
Q 2675 2995 2528 2995 
Q 2240 2995 2240 2624 
L 2240 0 
L 1600 0 
L 1600 2624 
Q 1600 2797 1526 2896 
Q 1453 2995 1312 2995 
Q 1005 2995 1005 2624 
L 1005 0 
L 301 0 
z
" transform="scale(0.015625)"/>
      <path id="JetBrainsMono-Bold-20" transform="scale(0.015625)"/>
      <path id="JetBrainsMono-Bold-53" d="M 1939 -64 
Q 1466 -64 1110 102 
Q 755 269 560 579 
Q 365 890 365 1318 
L 1152 1318 
Q 1152 1005 1366 819 
Q 1581 634 1939 634 
Q 2285 634 2486 816 
Q 2688 998 2688 1306 
Q 2688 1536 2557 1712 
Q 2426 1888 2182 1952 
L 1555 2112 
Q 1050 2240 755 2592 
Q 461 2944 461 3430 
Q 461 4026 851 4381 
Q 1242 4736 1894 4736 
Q 2336 4736 2665 4576 
Q 2995 4416 3174 4125 
Q 3354 3834 3354 3443 
L 2573 3443 
Q 2573 3712 2387 3878 
Q 2202 4045 1894 4045 
Q 1594 4045 1418 3881 
Q 1242 3718 1242 3456 
Q 1242 3238 1366 3097 
Q 1491 2957 1715 2893 
L 2362 2733 
Q 2880 2605 3177 2221 
Q 3475 1837 3475 1306 
Q 3475 890 3286 582 
Q 3098 275 2752 105 
Q 2406 -64 1939 -64 
z
" transform="scale(0.015625)"/>
      <path id="JetBrainsMono-Bold-76" d="M 1414 0 
L 230 3520 
L 1069 3520 
L 1747 1382 
Q 1811 1190 1859 995 
Q 1907 800 1926 659 
Q 1952 800 1993 995 
Q 2035 1190 2093 1376 
L 2765 3520 
L 3610 3520 
L 2432 0 
L 1414 0 
z
" transform="scale(0.015625)"/>
      <path id="JetBrainsMono-Bold-64" d="M 1600 -64 
Q 1088 -64 771 301 
Q 454 666 454 1280 
L 454 2234 
Q 454 2854 768 3219 
Q 1082 3584 1600 3584 
Q 1965 3584 2217 3398 
Q 2470 3213 2573 2880 
L 2547 3686 
L 2547 4672 
L 3347 4672 
L 3347 0 
L 2566 0 
L 2566 640 
Q 2470 307 2220 121 
Q 1971 -64 1600 -64 
z
M 1901 627 
Q 2208 627 2377 812 
Q 2547 998 2547 1338 
L 2547 2182 
Q 2547 2522 2377 2707 
Q 2208 2893 1901 2893 
Q 1594 2893 1424 2726 
Q 1254 2560 1254 2214 
L 1254 1306 
Q 1254 960 1424 793 
Q 1594 627 1901 627 
z
" transform="scale(0.015625)"/>
     </defs>
     <use xlink:href="#JetBrainsMono-Bold-50"/>
     <use xlink:href="#JetBrainsMono-Bold-72" transform="translate(59.999985 0)"/>
     <use xlink:href="#JetBrainsMono-Bold-6f" transform="translate(119.999969 0)"/>
     <use xlink:href="#JetBrainsMono-Bold-62" transform="translate(179.999954 0)"/>
     <use xlink:href="#JetBrainsMono-Bold-6c" transform="translate(239.999939 0)"/>
     <use xlink:href="#JetBrainsMono-Bold-65" transform="translate(299.999924 0)"/>
     <use xlink:href="#JetBrainsMono-Bold-6d" transform="translate(359.999908 0)"/>
     <use xlink:href="#JetBrainsMono-Bold-20" transform="translate(419.999893 0)"/>
     <use xlink:href="#JetBrainsMono-Bold-53" transform="translate(479.999878 0)"/>
     <use xlink:href="#JetBrainsMono-Bold-6f" transform="translate(539.999863 0)"/>
     <use xlink:href="#JetBrainsMono-Bold-6c" transform="translate(599.999847 0)"/>
     <use xlink:href="#JetBrainsMono-Bold-76" transform="translate(659.999832 0)"/>
     <use xlink:href="#JetBrainsMono-Bold-65" transform="translate(719.999817 0)"/>
     <use xlink:href="#JetBrainsMono-Bold-64" transform="translate(779.999802 0)"/>
    </g>
   </g>
   <g id="text_5">
    <!-- Total -->
    <g style="fill: #667085" transform="translate(358.87104 101.1962) scale(0.094 -0.094)">
     <defs>
      <path id="JetBrainsMono-Regular-54" d="M 1632 0 
L 1632 4147 
L 352 4147 
L 352 4672 
L 3488 4672 
L 3488 4147 
L 2208 4147 
L 2208 0 
L 1632 0 
z
" transform="scale(0.015625)"/>
      <path id="JetBrainsMono-Regular-74" d="M 2272 0 
Q 1837 0 1574 253 
Q 1312 506 1312 928 
L 1312 2995 
L 301 2995 
L 301 3520 
L 1312 3520 
L 1312 4512 
L 1888 4512 
L 1888 3520 
L 3328 3520 
L 3328 2995 
L 1888 2995 
L 1888 928 
Q 1888 749 1993 637 
Q 2099 525 2272 525 
L 3296 525 
L 3296 0 
L 2272 0 
z
" transform="scale(0.015625)"/>
      <path id="JetBrainsMono-Regular-61" d="M 1613 -64 
Q 1069 -64 749 240 
Q 429 544 429 1037 
Q 429 1363 576 1606 
Q 723 1850 985 1987 
Q 1248 2125 1587 2125 
L 2675 2125 
L 2675 2400 
Q 2675 3085 1926 3085 
Q 1594 3085 1389 2963 
Q 1184 2842 1171 2624 
L 595 2624 
Q 627 3040 982 3312 
Q 1338 3584 1926 3584 
Q 2566 3584 2908 3277 
Q 3251 2970 3251 2419 
L 3251 0 
L 2682 0 
L 2682 640 
L 2669 640 
Q 2618 314 2342 125 
Q 2067 -64 1613 -64 
z
M 1754 422 
Q 2176 422 2425 627 
Q 2675 832 2675 1184 
L 2675 1677 
L 1651 1677 
Q 1370 1677 1194 1507 
Q 1018 1338 1018 1056 
Q 1018 762 1213 592 
Q 1408 422 1754 422 
z
" transform="scale(0.015625)"/>
     </defs>
     <use xlink:href="#JetBrainsMono-Regular-54"/>
     <use xlink:href="#JetBrainsMono-Regular-6f" transform="translate(59.999985 0)"/>
     <use xlink:href="#JetBrainsMono-Regular-74" transform="translate(119.999969 0)"/>
     <use xlink:href="#JetBrainsMono-Regular-61" transform="translate(179.999954 0)"/>
     <use xlink:href="#JetBrainsMono-Regular-6c" transform="translate(239.999939 0)"/>
    </g>
   </g>
   <g id="text_6">
    <!-- 66 solved -->
    <g style="fill: #344054" transform="translate(600.38496 101.8562) scale(0.118 -0.118)">
     <use xlink:href="#JetBrainsMono-Bold-36"/>
     <use xlink:href="#JetBrainsMono-Bold-36" transform="translate(59.999985 0)"/>
     <use xlink:href="#JetBrainsMono-Bold-20" transform="translate(119.999969 0)"/>
     <use xlink:href="#JetBrainsMono-Bold-73" transform="translate(179.999954 0)"/>
     <use xlink:href="#JetBrainsMono-Bold-6f" transform="translate(239.999939 0)"/>
     <use xlink:href="#JetBrainsMono-Bold-6c" transform="translate(299.999924 0)"/>
     <use xlink:href="#JetBrainsMono-Bold-76" transform="translate(359.999908 0)"/>
     <use xlink:href="#JetBrainsMono-Bold-65" transform="translate(419.999893 0)"/>
     <use xlink:href="#JetBrainsMono-Bold-64" transform="translate(479.999878 0)"/>
    </g>
   </g>
   <g id="text_7">
    <!-- Baekjoon -->
    <g style="fill: #667085" transform="translate(358.87104 127.337247) scale(0.094 -0.094)">
     <defs>
      <path id="JetBrainsMono-Regular-42" d="M 595 0 
L 595 4672 
L 1920 4672 
Q 2560 4672 2921 4352 
Q 3283 4032 3283 3462 
Q 3283 3104 3056 2816 
Q 2829 2528 2464 2458 
L 2464 2438 
Q 2739 2406 2947 2246 
Q 3155 2086 3273 1840 
Q 3392 1594 3392 1299 
Q 3392 698 3024 349 
Q 2656 0 2016 0 
L 595 0 
z
M 1158 2682 
L 1914 2682 
Q 2285 2682 2499 2880 
Q 2714 3078 2714 3418 
Q 2714 3757 2502 3955 
Q 2291 4154 1920 4154 
L 1158 4154 
L 1158 2682 
z
M 1158 518 
L 1952 518 
Q 2355 518 2588 732 
Q 2822 947 2822 1318 
Q 2822 1702 2588 1942 
Q 2355 2182 1952 2182 
L 1158 2182 
L 1158 518 
z
" transform="scale(0.015625)"/>
      <path id="JetBrainsMono-Regular-6b" d="M 621 0 
L 621 4672 
L 1197 4672 
L 1197 2067 
L 1869 2067 
L 2854 3520 
L 3514 3520 
L 2381 1843 
L 3578 0 
L 2906 0 
L 1882 1568 
L 1197 1568 
L 1197 0 
L 621 0 
z
" transform="scale(0.015625)"/>
      <path id="JetBrainsMono-Regular-6a" d="M 576 -1152 
L 576 -627 
L 1370 -627 
Q 1766 -627 1987 -409 
Q 2208 -192 2208 198 
L 2208 2995 
L 544 2995 
L 544 3520 
L 2784 3520 
L 2784 198 
Q 2784 -422 2400 -787 
Q 2016 -1152 1370 -1152 
L 576 -1152 
z
M 2432 4154 
Q 2221 4154 2099 4262 
Q 1978 4371 1978 4557 
Q 1978 4749 2099 4861 
Q 2221 4973 2432 4973 
Q 2643 4973 2764 4861 
Q 2886 4749 2886 4557 
Q 2886 4371 2764 4262 
Q 2643 4154 2432 4154 
z
" transform="scale(0.015625)"/>
      <path id="JetBrainsMono-Regular-6e" d="M 589 0 
L 589 3520 
L 1165 3520 
L 1165 2848 
L 1171 2848 
Q 1216 3200 1459 3392 
Q 1702 3584 2106 3584 
Q 2637 3584 2950 3257 
Q 3264 2931 3264 2368 
L 3264 0 
L 2688 0 
L 2688 2266 
Q 2688 2669 2486 2883 
Q 2285 3098 1939 3098 
Q 1581 3098 1373 2874 
Q 1165 2650 1165 2240 
L 1165 0 
L 589 0 
z
" transform="scale(0.015625)"/>
     </defs>
     <use xlink:href="#JetBrainsMono-Regular-42"/>
     <use xlink:href="#JetBrainsMono-Regular-61" transform="translate(59.999985 0)"/>
     <use xlink:href="#JetBrainsMono-Regular-65" transform="translate(119.999969 0)"/>
     <use xlink:href="#JetBrainsMono-Regular-6b" transform="translate(179.999954 0)"/>
     <use xlink:href="#JetBrainsMono-Regular-6a" transform="translate(239.999939 0)"/>
     <use xlink:href="#JetBrainsMono-Regular-6f" transform="translate(299.999924 0)"/>
     <use xlink:href="#JetBrainsMono-Regular-6f" transform="translate(359.999908 0)"/>
     <use xlink:href="#JetBrainsMono-Regular-6e" transform="translate(419.999893 0)"/>
    </g>
   </g>
   <g id="text_8">
    <!-- 59 solved -->
    <g style="fill: #344054" transform="translate(600.38496 127.7762) scale(0.118 -0.118)">
     <defs>
      <path id="JetBrainsMono-Bold-35" d="M 1894 -64 
Q 1210 -64 803 297 
Q 397 659 397 1280 
L 1197 1280 
Q 1197 986 1385 810 
Q 1574 634 1901 634 
Q 2227 634 2409 810 
Q 2592 986 2592 1299 
L 2592 1606 
Q 2592 1920 2413 2096 
Q 2234 2272 1907 2272 
L 557 2272 
L 557 4672 
L 3219 4672 
L 3219 3949 
L 1312 3949 
L 1318 2976 
L 1946 2976 
Q 2637 2976 3014 2617 
Q 3392 2259 3392 1606 
L 3392 1299 
Q 3392 666 2992 301 
Q 2592 -64 1894 -64 
z
" transform="scale(0.015625)"/>
      <path id="JetBrainsMono-Bold-39" d="M 1120 0 
L 2214 1888 
Q 2138 1830 2035 1788 
Q 1933 1747 1728 1747 
Q 1344 1747 1027 1932 
Q 710 2118 524 2448 
Q 339 2778 339 3213 
Q 339 3674 534 4016 
Q 730 4358 1085 4547 
Q 1440 4736 1920 4736 
Q 2400 4736 2755 4544 
Q 3110 4352 3305 4003 
Q 3501 3654 3501 3187 
Q 3501 2912 3382 2557 
Q 3264 2202 3059 1837 
L 2048 0 
L 1120 0 
z
M 1920 2387 
Q 2278 2387 2496 2614 
Q 2714 2842 2714 3226 
Q 2714 3603 2496 3830 
Q 2278 4058 1920 4058 
Q 1562 4058 1344 3830 
Q 1126 3603 1126 3226 
Q 1126 2842 1344 2614 
Q 1562 2387 1920 2387 
z
" transform="scale(0.015625)"/>
     </defs>
     <use xlink:href="#JetBrainsMono-Bold-35"/>
     <use xlink:href="#JetBrainsMono-Bold-39" transform="translate(59.999985 0)"/>
     <use xlink:href="#JetBrainsMono-Bold-20" transform="translate(119.999969 0)"/>
     <use xlink:href="#JetBrainsMono-Bold-73" transform="translate(179.999954 0)"/>
     <use xlink:href="#JetBrainsMono-Bold-6f" transform="translate(239.999939 0)"/>
     <use xlink:href="#JetBrainsMono-Bold-6c" transform="translate(299.999924 0)"/>
     <use xlink:href="#JetBrainsMono-Bold-76" transform="translate(359.999908 0)"/>
     <use xlink:href="#JetBrainsMono-Bold-65" transform="translate(419.999893 0)"/>
     <use xlink:href="#JetBrainsMono-Bold-64" transform="translate(479.999878 0)"/>
    </g>
   </g>
   <g id="text_9">
    <!-- Programmers -->
    <g style="fill: #667085" transform="translate(358.87104 153.0362) scale(0.094 -0.094)">
     <defs>
      <path id="JetBrainsMono-Regular-50" d="M 589 0 
L 589 4672 
L 2093 4672 
Q 2746 4672 3133 4297 
Q 3520 3923 3520 3296 
Q 3520 2669 3133 2294 
Q 2746 1920 2093 1920 
L 1165 1920 
L 1165 0 
L 589 0 
z
M 1165 2438 
L 2093 2438 
Q 2470 2438 2697 2672 
Q 2925 2906 2925 3296 
Q 2925 3693 2697 3923 
Q 2470 4154 2093 4154 
L 1165 4154 
L 1165 2438 
z
" transform="scale(0.015625)"/>
      <path id="JetBrainsMono-Regular-72" d="M 717 0 
L 717 3520 
L 1293 3520 
L 1293 2848 
L 1306 2848 
Q 1350 3187 1593 3385 
Q 1837 3584 2246 3584 
Q 2797 3584 3094 3254 
Q 3392 2925 3392 2317 
L 3392 2016 
L 2816 2016 
L 2816 2317 
Q 2816 3085 2067 3085 
Q 1690 3085 1491 2867 
Q 1293 2650 1293 2240 
L 1293 0 
L 717 0 
z
" transform="scale(0.015625)"/>
      <path id="JetBrainsMono-Regular-67" d="M 1030 -1152 
L 1030 -627 
L 2022 -627 
Q 2323 -627 2496 -457 
Q 2669 -288 2669 0 
L 2669 320 
L 2682 896 
L 2662 896 
Q 2611 582 2361 412 
Q 2112 243 1734 243 
Q 1190 243 876 588 
Q 563 934 563 1536 
L 563 2278 
Q 563 2880 876 3232 
Q 1190 3584 1734 3584 
Q 2112 3584 2361 3405 
Q 2611 3226 2662 2912 
L 2675 2912 
L 2675 3520 
L 3245 3520 
L 3245 0 
Q 3245 -531 2915 -841 
Q 2586 -1152 2016 -1152 
L 1030 -1152 
z
M 1907 723 
Q 2266 723 2470 947 
Q 2675 1171 2675 1568 
L 2675 2240 
Q 2675 2637 2470 2861 
Q 2266 3085 1907 3085 
Q 1542 3085 1340 2873 
Q 1139 2662 1139 2304 
L 1139 1504 
Q 1139 1146 1340 934 
Q 1542 723 1907 723 
z
" transform="scale(0.015625)"/>
      <path id="JetBrainsMono-Regular-6d" d="M 384 0 
L 384 3520 
L 883 3520 
L 883 3053 
L 896 3053 
Q 928 3290 1085 3437 
Q 1242 3584 1485 3584 
Q 1715 3584 1875 3449 
Q 2035 3315 2106 3085 
L 2112 3085 
Q 2157 3315 2313 3449 
Q 2470 3584 2714 3584 
Q 3053 3584 3254 3331 
Q 3456 3078 3456 2675 
L 3456 0 
L 2918 0 
L 2918 2682 
Q 2918 2893 2816 3017 
Q 2714 3142 2534 3142 
Q 2362 3142 2259 3020 
Q 2157 2899 2157 2688 
L 2157 0 
L 1683 0 
L 1683 2682 
Q 1683 2893 1580 3017 
Q 1478 3142 1306 3142 
Q 1126 3142 1024 3020 
Q 922 2899 922 2688 
L 922 0 
L 384 0 
z
" transform="scale(0.015625)"/>
     </defs>
     <use xlink:href="#JetBrainsMono-Regular-50"/>
     <use xlink:href="#JetBrainsMono-Regular-72" transform="translate(59.999985 0)"/>
     <use xlink:href="#JetBrainsMono-Regular-6f" transform="translate(119.999969 0)"/>
     <use xlink:href="#JetBrainsMono-Regular-67" transform="translate(179.999954 0)"/>
     <use xlink:href="#JetBrainsMono-Regular-72" transform="translate(239.999939 0)"/>
     <use xlink:href="#JetBrainsMono-Regular-61" transform="translate(299.999924 0)"/>
     <use xlink:href="#JetBrainsMono-Regular-6d" transform="translate(359.999908 0)"/>
     <use xlink:href="#JetBrainsMono-Regular-6d" transform="translate(419.999893 0)"/>
     <use xlink:href="#JetBrainsMono-Regular-65" transform="translate(479.999878 0)"/>
     <use xlink:href="#JetBrainsMono-Regular-72" transform="translate(539.999863 0)"/>
     <use xlink:href="#JetBrainsMono-Regular-73" transform="translate(599.999847 0)"/>
    </g>
   </g>
   <g id="text_10">
    <!-- 7 solved -->
    <g style="fill: #344054" transform="translate(607.46496 153.6962) scale(0.118 -0.118)">
     <defs>
      <path id="JetBrainsMono-Bold-37" d="M 1011 0 
L 2720 3968 
L 1229 3968 
L 1229 3206 
L 429 3206 
L 429 4672 
L 3584 4672 
L 3584 3968 
L 1888 0 
L 1011 0 
z
" transform="scale(0.015625)"/>
     </defs>
     <use xlink:href="#JetBrainsMono-Bold-37"/>
     <use xlink:href="#JetBrainsMono-Bold-20" transform="translate(59.999985 0)"/>
     <use xlink:href="#JetBrainsMono-Bold-73" transform="translate(119.999969 0)"/>
     <use xlink:href="#JetBrainsMono-Bold-6f" transform="translate(179.999954 0)"/>
     <use xlink:href="#JetBrainsMono-Bold-6c" transform="translate(239.999939 0)"/>
     <use xlink:href="#JetBrainsMono-Bold-76" transform="translate(299.999924 0)"/>
     <use xlink:href="#JetBrainsMono-Bold-65" transform="translate(359.999908 0)"/>
     <use xlink:href="#JetBrainsMono-Bold-64" transform="translate(419.999893 0)"/>
    </g>
   </g>
   <g id="text_11">
    <!-- Main Lang -->
    <g style="fill: #667085" transform="translate(358.87104 179.177247) scale(0.094 -0.094)">
     <defs>
      <path id="JetBrainsMono-Regular-4d" d="M 461 0 
L 461 4672 
L 1312 4672 
L 1907 2650 
L 2528 4672 
L 3379 4672 
L 3379 0 
L 2822 0 
L 2822 2208 
Q 2822 2522 2832 2928 
Q 2842 3334 2861 3750 
Q 2880 4166 2906 4499 
L 2150 2086 
L 1651 2086 
L 928 4442 
Q 979 3968 998 3405 
Q 1018 2842 1018 2208 
L 1018 0 
L 461 0 
z
" transform="scale(0.015625)"/>
      <path id="JetBrainsMono-Regular-69" d="M 544 0 
L 544 525 
L 1792 525 
L 1792 2995 
L 672 2995 
L 672 3520 
L 2368 3520 
L 2368 525 
L 3552 525 
L 3552 0 
L 544 0 
z
M 2016 4154 
Q 1805 4154 1683 4262 
Q 1562 4371 1562 4557 
Q 1562 4749 1683 4861 
Q 1805 4973 2016 4973 
Q 2227 4973 2348 4861 
Q 2470 4749 2470 4557 
Q 2470 4371 2348 4262 
Q 2227 4154 2016 4154 
z
" transform="scale(0.015625)"/>
      <path id="JetBrainsMono-Regular-20" transform="scale(0.015625)"/>
      <path id="JetBrainsMono-Regular-4c" d="M 832 0 
L 832 4672 
L 1408 4672 
L 1408 525 
L 3520 525 
L 3520 0 
L 832 0 
z
" transform="scale(0.015625)"/>
     </defs>
     <use xlink:href="#JetBrainsMono-Regular-4d"/>
     <use xlink:href="#JetBrainsMono-Regular-61" transform="translate(59.999985 0)"/>
     <use xlink:href="#JetBrainsMono-Regular-69" transform="translate(119.999969 0)"/>
     <use xlink:href="#JetBrainsMono-Regular-6e" transform="translate(179.999954 0)"/>
     <use xlink:href="#JetBrainsMono-Regular-20" transform="translate(239.999939 0)"/>
     <use xlink:href="#JetBrainsMono-Regular-4c" transform="translate(299.999924 0)"/>
     <use xlink:href="#JetBrainsMono-Regular-61" transform="translate(359.999908 0)"/>
     <use xlink:href="#JetBrainsMono-Regular-6e" transform="translate(419.999893 0)"/>
     <use xlink:href="#JetBrainsMono-Regular-67" transform="translate(479.999878 0)"/>
    </g>
   </g>
   <g id="text_12">
    <!-- C# -->
    <g style="fill: #9b4f96" transform="translate(649.94496 179.6162) scale(0.118 -0.118)">
     <defs>
      <path id="JetBrainsMono-Bold-43" d="M 1971 -64 
Q 1517 -64 1184 105 
Q 851 275 668 585 
Q 486 896 486 1318 
L 486 3354 
Q 486 3776 668 4086 
Q 851 4397 1184 4566 
Q 1517 4736 1971 4736 
Q 2419 4736 2752 4566 
Q 3085 4397 3270 4086 
Q 3456 3776 3456 3354 
L 2650 3354 
Q 2650 3680 2474 3856 
Q 2298 4032 1971 4032 
Q 1645 4032 1465 3856 
Q 1286 3680 1286 3354 
L 1286 1318 
Q 1286 992 1465 816 
Q 1645 640 1971 640 
Q 2298 640 2474 816 
Q 2650 992 2650 1318 
L 3456 1318 
Q 3456 896 3270 585 
Q 3085 275 2752 105 
Q 2419 -64 1971 -64 
z
" transform="scale(0.015625)"/>
      <path id="JetBrainsMono-Bold-23" d="M 493 0 
L 710 1216 
L 224 1216 
L 224 1760 
L 800 1760 
L 998 2912 
L 448 2912 
L 448 3456 
L 1094 3456 
L 1312 4672 
L 1875 4672 
L 1658 3456 
L 2566 3456 
L 2784 4672 
L 3347 4672 
L 3130 3456 
L 3616 3456 
L 3616 2912 
L 3034 2912 
L 2835 1760 
L 3392 1760 
L 3392 1216 
L 2739 1216 
L 2528 0 
L 1965 0 
L 2182 1216 
L 1267 1216 
L 1056 0 
L 493 0 
z
M 1363 1760 
L 2272 1760 
L 2470 2912 
L 1562 2912 
L 1363 1760 
z
" transform="scale(0.015625)"/>
     </defs>
     <use xlink:href="#JetBrainsMono-Bold-43"/>
     <use xlink:href="#JetBrainsMono-Bold-23" transform="translate(59.999985 0)"/>
    </g>
   </g>
   <g id="text_13">
    <!-- Languages -->
    <g style="fill: #667085" transform="translate(358.87104 196.3068) scale(0.084 -0.084)">
     <defs>
      <path id="JetBrainsMono-Regular-75" d="M 1914 -64 
Q 1306 -64 941 297 
Q 576 659 576 1280 
L 576 3520 
L 1152 3520 
L 1152 1280 
Q 1152 896 1357 669 
Q 1562 442 1914 442 
Q 2272 442 2480 669 
Q 2688 896 2688 1280 
L 2688 3520 
L 3264 3520 
L 3264 1280 
Q 3264 659 2893 297 
Q 2522 -64 1914 -64 
z
" transform="scale(0.015625)"/>
     </defs>
     <use xlink:href="#JetBrainsMono-Regular-4c"/>
     <use xlink:href="#JetBrainsMono-Regular-61" transform="translate(59.999985 0)"/>
     <use xlink:href="#JetBrainsMono-Regular-6e" transform="translate(119.999969 0)"/>
     <use xlink:href="#JetBrainsMono-Regular-67" transform="translate(179.999954 0)"/>
     <use xlink:href="#JetBrainsMono-Regular-75" transform="translate(239.999939 0)"/>
     <use xlink:href="#JetBrainsMono-Regular-61" transform="translate(299.999924 0)"/>
     <use xlink:href="#JetBrainsMono-Regular-67" transform="translate(359.999908 0)"/>
     <use xlink:href="#JetBrainsMono-Regular-65" transform="translate(419.999893 0)"/>
     <use xlink:href="#JetBrainsMono-Regular-73" transform="translate(479.999878 0)"/>
    </g>
   </g>
  </g>
 </g>
 <defs>
  <clipPath id="p73b7e4b685">
   <rect x="345.6" y="11.52" width="331.776" height="207.36"/>
  </clipPath>
 </defs>
</svg>
