<?xml version="1.0" encoding="utf-8" standalone="no"?>
<!DOCTYPE svg PUBLIC "-//W3C//DTD SVG 1.1//EN"
  "http://www.w3.org/Graphics/SVG/1.1/DTD/svg11.dtd">
<svg xmlns:xlink="http://www.w3.org/1999/xlink" width="691.2pt" height="396pt" viewBox="0 0 691.2 396" xmlns="http://www.w3.org/2000/svg" version="1.1">
 <metadata>
  <rdf:RDF xmlns:dc="http://purl.org/dc/elements/1.1/" xmlns:cc="http://creativecommons.org/ns#" xmlns:rdf="http://www.w3.org/1999/02/22-rdf-syntax-ns#">
   <cc:Work>
    <dc:type rdf:resource="http://purl.org/dc/dcmitype/StillImage"/>
    <dc:date>2026-07-01T17:03:54.290305</dc:date>
    <dc:format>image/svg+xml</dc:format>
    <dc:creator>
     <cc:Agent>
      <dc:title>Matplotlib v3.11.0, https://matplotlib.org/</dc:title>
     </cc:Agent>
    </dc:creator>
   </cc:Work>
  </rdf:RDF>
 </metadata>
 <defs>
  <style type="text/css">*{stroke-linejoin: round; stroke-linecap: butt}</style>
 </defs>
 <g id="figure_1">
  <g id="patch_1">
   <path d="M 0 396 
L 691.2 396 
L 691.2 0 
L 0 0 
L 0 396 
z
" style="fill: none"/>
  </g>
  <g id="axes_1">
   <g id="patch_2">
    <path d="M 55.296 324.72 
L 546.048 324.72 
L 546.048 55.44 
L 55.296 55.44 
L 55.296 324.72 
z
" style="fill: none"/>
   </g>
   <g id="matplotlib.axis_1">
    <g id="xtick_1">
     <g id="line2d_1">
      <path d="M 63.4752 324.72 
L 63.4752 55.44 
" clip-path="url(#p18445c7585)" style="fill: none; stroke-dasharray: 2.22,0.96; stroke-dashoffset: 0; stroke: #eaecf0; stroke-opacity: 0.7; stroke-width: 0.6"/>
     </g>
     <g id="line2d_2">
      <defs>
       <path id="m3ce5c3dc68" d="M 0 0 
L 0 3.5 
" style="stroke: #667085; stroke-width: 0.8"/>
      </defs>
      <g>
       <use xlink:href="#m3ce5c3dc68" x="63.4752" y="324.72" style="fill: #667085; stroke: #667085; stroke-width: 0.8"/>
      </g>
     </g>
     <g id="text_1">
      <!-- 06/03 -->
      <g style="fill: #667085" transform="translate(52.284819 355.553459) rotate(-30) scale(0.1 -0.1)">
       <defs>
        <path id="JetBrainsMono-Regular-2d4" d="M 1920 -64 
Q 1274 -64 893 310 
Q 512 685 512 1312 
L 512 3360 
Q 512 3987 893 4361 
Q 1274 4736 1920 4736 
Q 2566 4736 2947 4361 
Q 3328 3987 3328 3360 
L 3328 1312 
Q 3328 896 3155 585 
Q 2982 275 2665 105 
Q 2349 -64 1920 -64 
z
M 1920 429 
Q 2304 429 2537 675 
Q 2771 922 2771 1312 
L 2771 3360 
Q 2771 3750 2537 3996 
Q 2304 4243 1920 4243 
Q 1536 4243 1302 3996 
Q 1069 3750 1069 3360 
L 1069 1312 
Q 1069 922 1302 675 
Q 1536 429 1920 429 
z
M 1920 1984 
Q 1747 1984 1641 2080 
Q 1536 2176 1536 2355 
Q 1536 2528 1641 2621 
Q 1747 2714 1920 2714 
Q 2093 2714 2198 2621 
Q 2304 2528 2304 2355 
Q 2304 2176 2198 2080 
Q 2093 1984 1920 1984 
z
" transform="scale(0.015625)"/>
        <path id="JetBrainsMono-Regular-2da" d="M 1926 -64 
Q 1478 -64 1136 125 
Q 794 314 602 650 
Q 410 986 410 1427 
Q 410 1734 525 2057 
Q 640 2381 838 2733 
L 1920 4672 
L 2560 4672 
L 1408 2669 
L 1427 2656 
Q 1510 2765 1676 2822 
Q 1843 2880 2042 2880 
Q 2458 2880 2768 2697 
Q 3078 2515 3254 2195 
Q 3430 1875 3430 1453 
Q 3430 1005 3238 662 
Q 3046 320 2710 128 
Q 2374 -64 1926 -64 
z
M 1920 448 
Q 2336 448 2595 723 
Q 2854 998 2854 1440 
Q 2854 1882 2595 2157 
Q 2336 2432 1920 2432 
Q 1504 2432 1245 2157 
Q 986 1882 986 1440 
Q 986 998 1245 723 
Q 1504 448 1920 448 
z
" transform="scale(0.015625)"/>
        <path id="JetBrainsMono-Regular-33d" d="M 480 -704 
L 2752 5312 
L 3360 5312 
L 1088 -704 
L 480 -704 
z
" transform="scale(0.015625)"/>
        <path id="JetBrainsMono-Regular-2d7" d="M 1850 -64 
Q 1203 -64 825 297 
Q 448 659 448 1280 
L 1024 1280 
Q 1024 896 1248 672 
Q 1472 448 1856 448 
Q 2240 448 2464 672 
Q 2688 896 2688 1280 
L 2688 1600 
Q 2688 1984 2464 2208 
Q 2240 2432 1856 2432 
L 1350 2432 
L 1350 2931 
L 2496 4147 
L 576 4147 
L 576 4672 
L 3149 4672 
L 3149 4134 
L 2022 2938 
Q 2598 2893 2931 2537 
Q 3264 2182 3264 1600 
L 3264 1280 
Q 3264 659 2883 297 
Q 2502 -64 1850 -64 
z
" transform="scale(0.015625)"/>
       </defs>
       <use xlink:href="#JetBrainsMono-Regular-2d4"/>
       <use xlink:href="#JetBrainsMono-Regular-2da" transform="translate(60 0)"/>
       <use xlink:href="#JetBrainsMono-Regular-33d" transform="translate(120 0)"/>
       <use xlink:href="#JetBrainsMono-Regular-2d4" transform="translate(180 0)"/>
       <use xlink:href="#JetBrainsMono-Regular-2d7" transform="translate(240 0)"/>
      </g>
     </g>
    </g>
    <g id="xtick_2">
     <g id="line2d_3">
      <path d="M 128.9088 324.72 
L 128.9088 55.44 
" clip-path="url(#p18445c7585)" style="fill: none; stroke-dasharray: 2.22,0.96; stroke-dashoffset: 0; stroke: #eaecf0; stroke-opacity: 0.7; stroke-width: 0.6"/>
     </g>
     <g id="line2d_4">
      <g>
       <use xlink:href="#m3ce5c3dc68" x="128.9088" y="324.72" style="fill: #667085; stroke: #667085; stroke-width: 0.8"/>
      </g>
     </g>
     <g id="text_2">
      <!-- 06/07 -->
      <g style="fill: #667085" transform="translate(117.718419 355.553459) rotate(-30) scale(0.1 -0.1)">
       <defs>
        <path id="JetBrainsMono-Regular-2db" d="M 1216 0 
L 2880 4147 
L 1101 4147 
L 1101 3392 
L 525 3392 
L 525 4672 
L 3494 4672 
L 3494 4134 
L 1843 0 
L 1216 0 
z
" transform="scale(0.015625)"/>
       </defs>
       <use xlink:href="#JetBrainsMono-Regular-2d4"/>
       <use xlink:href="#JetBrainsMono-Regular-2da" transform="translate(60 0)"/>
       <use xlink:href="#JetBrainsMono-Regular-33d" transform="translate(120 0)"/>
       <use xlink:href="#JetBrainsMono-Regular-2d4" transform="translate(180 0)"/>
       <use xlink:href="#JetBrainsMono-Regular-2db" transform="translate(240 0)"/>
      </g>
     </g>
    </g>
    <g id="xtick_3">
     <g id="line2d_5">
      <path d="M 194.3424 324.72 
L 194.3424 55.44 
" clip-path="url(#p18445c7585)" style="fill: none; stroke-dasharray: 2.22,0.96; stroke-dashoffset: 0; stroke: #eaecf0; stroke-opacity: 0.7; stroke-width: 0.6"/>
     </g>
     <g id="line2d_6">
      <g>
       <use xlink:href="#m3ce5c3dc68" x="194.3424" y="324.72" style="fill: #667085; stroke: #667085; stroke-width: 0.8"/>
      </g>
     </g>
     <g id="text_3">
      <!-- 06/11 -->
      <g style="fill: #667085" transform="translate(183.152019 355.553459) rotate(-30) scale(0.1 -0.1)">
       <defs>
        <path id="JetBrainsMono-Regular-2d5" d="M 576 0 
L 576 525 
L 1843 525 
L 1843 4173 
L 576 3226 
L 576 3885 
L 1632 4672 
L 2419 4672 
L 2419 525 
L 3456 525 
L 3456 0 
L 576 0 
z
" transform="scale(0.015625)"/>
       </defs>
       <use xlink:href="#JetBrainsMono-Regular-2d4"/>
       <use xlink:href="#JetBrainsMono-Regular-2da" transform="translate(60 0)"/>
       <use xlink:href="#JetBrainsMono-Regular-33d" transform="translate(120 0)"/>
       <use xlink:href="#JetBrainsMono-Regular-2d5" transform="translate(180 0)"/>
       <use xlink:href="#JetBrainsMono-Regular-2d5" transform="translate(240 0)"/>
      </g>
     </g>
    </g>
    <g id="xtick_4">
     <g id="line2d_7">
      <path d="M 259.776 324.72 
L 259.776 55.44 
" clip-path="url(#p18445c7585)" style="fill: none; stroke-dasharray: 2.22,0.96; stroke-dashoffset: 0; stroke: #eaecf0; stroke-opacity: 0.7; stroke-width: 0.6"/>
     </g>
     <g id="line2d_8">
      <g>
       <use xlink:href="#m3ce5c3dc68" x="259.776" y="324.72" style="fill: #667085; stroke: #667085; stroke-width: 0.8"/>
      </g>
     </g>
     <g id="text_4">
      <!-- 06/15 -->
      <g style="fill: #667085" transform="translate(248.585619 355.553459) rotate(-30) scale(0.1 -0.1)">
       <defs>
        <path id="JetBrainsMono-Regular-2d9" d="M 1882 -64 
Q 1235 -64 857 297 
Q 480 659 480 1280 
L 1056 1280 
Q 1056 896 1280 672 
Q 1504 448 1888 448 
Q 2272 448 2496 672 
Q 2720 896 2720 1280 
L 2720 1568 
Q 2720 1952 2502 2176 
Q 2285 2400 1914 2400 
L 640 2400 
L 640 4672 
L 3130 4672 
L 3130 4147 
L 1178 4147 
L 1190 2925 
L 1946 2925 
Q 2592 2925 2944 2569 
Q 3296 2214 3296 1568 
L 3296 1280 
Q 3296 659 2915 297 
Q 2534 -64 1882 -64 
z
" transform="scale(0.015625)"/>
       </defs>
       <use xlink:href="#JetBrainsMono-Regular-2d4"/>
       <use xlink:href="#JetBrainsMono-Regular-2da" transform="translate(60 0)"/>
       <use xlink:href="#JetBrainsMono-Regular-33d" transform="translate(120 0)"/>
       <use xlink:href="#JetBrainsMono-Regular-2d5" transform="translate(180 0)"/>
       <use xlink:href="#JetBrainsMono-Regular-2d9" transform="translate(240 0)"/>
      </g>
     </g>
    </g>
    <g id="xtick_5">
     <g id="line2d_9">
      <path d="M 325.2096 324.72 
L 325.2096 55.44 
" clip-path="url(#p18445c7585)" style="fill: none; stroke-dasharray: 2.22,0.96; stroke-dashoffset: 0; stroke: #eaecf0; stroke-opacity: 0.7; stroke-width: 0.6"/>
     </g>
     <g id="line2d_10">
      <g>
       <use xlink:href="#m3ce5c3dc68" x="325.2096" y="324.72" style="fill: #667085; stroke: #667085; stroke-width: 0.8"/>
      </g>
     </g>
     <g id="text_5">
      <!-- 06/19 -->
      <g style="fill: #667085" transform="translate(314.019219 355.553459) rotate(-30) scale(0.1 -0.1)">
       <defs>
        <path id="JetBrainsMono-Regular-2dd" d="M 1248 0 
L 2400 2003 
L 2381 2016 
Q 2317 1914 2144 1853 
Q 1971 1792 1766 1792 
Q 1363 1792 1059 1974 
Q 755 2157 582 2477 
Q 410 2797 410 3219 
Q 410 3674 602 4013 
Q 794 4352 1133 4544 
Q 1472 4736 1914 4736 
Q 2368 4736 2707 4547 
Q 3046 4358 3238 4022 
Q 3430 3686 3430 3245 
Q 3430 2938 3315 2614 
Q 3200 2291 3002 1939 
L 1920 0 
L 1248 0 
z
M 1920 2240 
Q 2336 2240 2595 2515 
Q 2854 2790 2854 3232 
Q 2854 3674 2595 3949 
Q 2336 4224 1920 4224 
Q 1504 4224 1245 3949 
Q 986 3674 986 3232 
Q 986 2790 1245 2515 
Q 1504 2240 1920 2240 
z
" transform="scale(0.015625)"/>
       </defs>
       <use xlink:href="#JetBrainsMono-Regular-2d4"/>
       <use xlink:href="#JetBrainsMono-Regular-2da" transform="translate(60 0)"/>
       <use xlink:href="#JetBrainsMono-Regular-33d" transform="translate(120 0)"/>
       <use xlink:href="#JetBrainsMono-Regular-2d5" transform="translate(180 0)"/>
       <use xlink:href="#JetBrainsMono-Regular-2dd" transform="translate(240 0)"/>
      </g>
     </g>
    </g>
    <g id="xtick_6">
     <g id="line2d_11">
      <path d="M 390.6432 324.72 
L 390.6432 55.44 
" clip-path="url(#p18445c7585)" style="fill: none; stroke-dasharray: 2.22,0.96; stroke-dashoffset: 0; stroke: #eaecf0; stroke-opacity: 0.7; stroke-width: 0.6"/>
     </g>
     <g id="line2d_12">
      <g>
       <use xlink:href="#m3ce5c3dc68" x="390.6432" y="324.72" style="fill: #667085; stroke: #667085; stroke-width: 0.8"/>
      </g>
     </g>
     <g id="text_6">
      <!-- 06/23 -->
      <g style="fill: #667085" transform="translate(379.452819 355.553459) rotate(-30) scale(0.1 -0.1)">
       <defs>
        <path id="JetBrainsMono-Regular-2d6" d="M 550 0 
L 550 531 
L 2106 2195 
Q 2445 2554 2585 2835 
Q 2726 3117 2726 3386 
Q 2726 3770 2505 3997 
Q 2285 4224 1907 4224 
Q 1517 4224 1289 3990 
Q 1062 3757 1062 3360 
L 486 3360 
Q 506 3994 890 4365 
Q 1274 4736 1907 4736 
Q 2554 4736 2934 4371 
Q 3315 4006 3315 3379 
Q 3315 3046 3132 2675 
Q 2950 2304 2509 1843 
L 1248 525 
L 3373 525 
L 3373 0 
L 550 0 
z
" transform="scale(0.015625)"/>
       </defs>
       <use xlink:href="#JetBrainsMono-Regular-2d4"/>
       <use xlink:href="#JetBrainsMono-Regular-2da" transform="translate(60 0)"/>
       <use xlink:href="#JetBrainsMono-Regular-33d" transform="translate(120 0)"/>
       <use xlink:href="#JetBrainsMono-Regular-2d6" transform="translate(180 0)"/>
       <use xlink:href="#JetBrainsMono-Regular-2d7" transform="translate(240 0)"/>
      </g>
     </g>
    </g>
    <g id="xtick_7">
     <g id="line2d_13">
      <path d="M 456.0768 324.72 
L 456.0768 55.44 
" clip-path="url(#p18445c7585)" style="fill: none; stroke-dasharray: 2.22,0.96; stroke-dashoffset: 0; stroke: #eaecf0; stroke-opacity: 0.7; stroke-width: 0.6"/>
     </g>
     <g id="line2d_14">
      <g>
       <use xlink:href="#m3ce5c3dc68" x="456.0768" y="324.72" style="fill: #667085; stroke: #667085; stroke-width: 0.8"/>
      </g>
     </g>
     <g id="text_7">
      <!-- 06/27 -->
      <g style="fill: #667085" transform="translate(444.886419 355.553459) rotate(-30) scale(0.1 -0.1)">
       <use xlink:href="#JetBrainsMono-Regular-2d4"/>
       <use xlink:href="#JetBrainsMono-Regular-2da" transform="translate(60 0)"/>
       <use xlink:href="#JetBrainsMono-Regular-33d" transform="translate(120 0)"/>
       <use xlink:href="#JetBrainsMono-Regular-2d6" transform="translate(180 0)"/>
       <use xlink:href="#JetBrainsMono-Regular-2db" transform="translate(240 0)"/>
      </g>
     </g>
    </g>
    <g id="xtick_8">
     <g id="line2d_15">
      <path d="M 521.5104 324.72 
L 521.5104 55.44 
" clip-path="url(#p18445c7585)" style="fill: none; stroke-dasharray: 2.22,0.96; stroke-dashoffset: 0; stroke: #eaecf0; stroke-opacity: 0.7; stroke-width: 0.6"/>
     </g>
     <g id="line2d_16">
      <g>
       <use xlink:href="#m3ce5c3dc68" x="521.5104" y="324.72" style="fill: #667085; stroke: #667085; stroke-width: 0.8"/>
      </g>
     </g>
     <g id="text_8">
      <!-- 07/01 -->
      <g style="fill: #667085" transform="translate(510.320019 355.553459) rotate(-30) scale(0.1 -0.1)">
       <use xlink:href="#JetBrainsMono-Regular-2d4"/>
       <use xlink:href="#JetBrainsMono-Regular-2db" transform="translate(60 0)"/>
       <use xlink:href="#JetBrainsMono-Regular-33d" transform="translate(120 0)"/>
       <use xlink:href="#JetBrainsMono-Regular-2d4" transform="translate(180 0)"/>
       <use xlink:href="#JetBrainsMono-Regular-2d5" transform="translate(240 0)"/>
      </g>
     </g>
    </g>
   </g>
   <g id="matplotlib.axis_2">
    <g id="ytick_1">
     <g id="line2d_17">
      <path d="M 55.296 324.72 
L 546.048 324.72 
" clip-path="url(#p18445c7585)" style="fill: none; stroke-dasharray: 2.22,0.96; stroke-dashoffset: 0; stroke: #eaecf0; stroke-opacity: 0.7; stroke-width: 0.6"/>
     </g>
     <g id="line2d_18">
      <defs>
       <path id="ma089617abb" d="M 0 0 
L -3.5 0 
" style="stroke: #667085; stroke-width: 0.8"/>
      </defs>
      <g>
       <use xlink:href="#ma089617abb" x="55.296" y="324.72" style="fill: #667085; stroke: #667085; stroke-width: 0.8"/>
      </g>
     </g>
     <g id="text_9">
      <!-- 71.0 -->
      <g style="fill: #667085" transform="translate(24.296 329.82) scale(0.1 -0.1)">
       <defs>
        <path id="JetBrainsMono-Regular-329" d="M 1920 -64 
Q 1683 -64 1539 77 
Q 1395 218 1395 442 
Q 1395 678 1539 825 
Q 1683 973 1920 973 
Q 2157 973 2301 825 
Q 2445 678 2445 442 
Q 2445 218 2301 77 
Q 2157 -64 1920 -64 
z
" transform="scale(0.015625)"/>
       </defs>
       <use xlink:href="#JetBrainsMono-Regular-2db"/>
       <use xlink:href="#JetBrainsMono-Regular-2d5" transform="translate(60 0)"/>
       <use xlink:href="#JetBrainsMono-Regular-329" transform="translate(120 0)"/>
       <use xlink:href="#JetBrainsMono-Regular-2d4" transform="translate(180 0)"/>
      </g>
     </g>
    </g>
    <g id="ytick_2">
     <g id="line2d_19">
      <path d="M 55.296 273.428571 
L 546.048 273.428571 
" clip-path="url(#p18445c7585)" style="fill: none; stroke-dasharray: 2.22,0.96; stroke-dashoffset: 0; stroke: #eaecf0; stroke-opacity: 0.7; stroke-width: 0.6"/>
     </g>
     <g id="line2d_20">
      <g>
       <use xlink:href="#ma089617abb" x="55.296" y="273.428571" style="fill: #667085; stroke: #667085; stroke-width: 0.8"/>
      </g>
     </g>
     <g id="text_10">
      <!-- 71.2 -->
      <g style="fill: #667085" transform="translate(24.296 278.528571) scale(0.1 -0.1)">
       <use xlink:href="#JetBrainsMono-Regular-2db"/>
       <use xlink:href="#JetBrainsMono-Regular-2d5" transform="translate(60 0)"/>
       <use xlink:href="#JetBrainsMono-Regular-329" transform="translate(120 0)"/>
       <use xlink:href="#JetBrainsMono-Regular-2d6" transform="translate(180 0)"/>
      </g>
     </g>
    </g>
    <g id="ytick_3">
     <g id="line2d_21">
      <path d="M 55.296 222.137143 
L 546.048 222.137143 
" clip-path="url(#p18445c7585)" style="fill: none; stroke-dasharray: 2.22,0.96; stroke-dashoffset: 0; stroke: #eaecf0; stroke-opacity: 0.7; stroke-width: 0.6"/>
     </g>
     <g id="line2d_22">
      <g>
       <use xlink:href="#ma089617abb" x="55.296" y="222.137143" style="fill: #667085; stroke: #667085; stroke-width: 0.8"/>
      </g>
     </g>
     <g id="text_11">
      <!-- 71.4 -->
      <g style="fill: #667085" transform="translate(24.296 227.237143) scale(0.1 -0.1)">
       <defs>
        <path id="JetBrainsMono-Regular-2d8" d="M 2560 0 
L 2560 1024 
L 448 1024 
L 448 1926 
L 2150 4672 
L 2803 4672 
L 1024 1798 
L 1024 1549 
L 2560 1549 
L 2560 2688 
L 3136 2688 
L 3136 0 
L 2560 0 
z
" transform="scale(0.015625)"/>
       </defs>
       <use xlink:href="#JetBrainsMono-Regular-2db"/>
       <use xlink:href="#JetBrainsMono-Regular-2d5" transform="translate(60 0)"/>
       <use xlink:href="#JetBrainsMono-Regular-329" transform="translate(120 0)"/>
       <use xlink:href="#JetBrainsMono-Regular-2d8" transform="translate(180 0)"/>
      </g>
     </g>
    </g>
    <g id="ytick_4">
     <g id="line2d_23">
      <path d="M 55.296 170.845714 
L 546.048 170.845714 
" clip-path="url(#p18445c7585)" style="fill: none; stroke-dasharray: 2.22,0.96; stroke-dashoffset: 0; stroke: #eaecf0; stroke-opacity: 0.7; stroke-width: 0.6"/>
     </g>
     <g id="line2d_24">
      <g>
       <use xlink:href="#ma089617abb" x="55.296" y="170.845714" style="fill: #667085; stroke: #667085; stroke-width: 0.8"/>
      </g>
     </g>
     <g id="text_12">
      <!-- 71.6 -->
      <g style="fill: #667085" transform="translate(24.296 175.945714) scale(0.1 -0.1)">
       <use xlink:href="#JetBrainsMono-Regular-2db"/>
       <use xlink:href="#JetBrainsMono-Regular-2d5" transform="translate(60 0)"/>
       <use xlink:href="#JetBrainsMono-Regular-329" transform="translate(120 0)"/>
       <use xlink:href="#JetBrainsMono-Regular-2da" transform="translate(180 0)"/>
      </g>
     </g>
    </g>
    <g id="ytick_5">
     <g id="line2d_25">
      <path d="M 55.296 119.554286 
L 546.048 119.554286 
" clip-path="url(#p18445c7585)" style="fill: none; stroke-dasharray: 2.22,0.96; stroke-dashoffset: 0; stroke: #eaecf0; stroke-opacity: 0.7; stroke-width: 0.6"/>
     </g>
     <g id="line2d_26">
      <g>
       <use xlink:href="#ma089617abb" x="55.296" y="119.554286" style="fill: #667085; stroke: #667085; stroke-width: 0.8"/>
      </g>
     </g>
     <g id="text_13">
      <!-- 71.8 -->
      <g style="fill: #667085" transform="translate(24.296 124.654286) scale(0.1 -0.1)">
       <defs>
        <path id="JetBrainsMono-Regular-2dc" d="M 1920 -64 
Q 1478 -64 1139 109 
Q 800 282 611 592 
Q 422 902 422 1306 
Q 422 1747 675 2067 
Q 928 2387 1350 2458 
L 1350 2477 
Q 986 2560 768 2845 
Q 550 3130 550 3501 
Q 550 3866 723 4144 
Q 896 4422 1206 4579 
Q 1517 4736 1920 4736 
Q 2330 4736 2637 4579 
Q 2944 4422 3117 4144 
Q 3290 3866 3290 3501 
Q 3290 3130 3072 2845 
Q 2854 2560 2490 2477 
L 2490 2458 
Q 2912 2387 3165 2067 
Q 3418 1747 3418 1306 
Q 3418 902 3229 592 
Q 3040 282 2704 109 
Q 2368 -64 1920 -64 
z
M 1920 2701 
Q 2278 2701 2496 2912 
Q 2714 3123 2714 3462 
Q 2714 3802 2496 4013 
Q 2278 4224 1920 4224 
Q 1568 4224 1347 4013 
Q 1126 3802 1126 3462 
Q 1126 3123 1347 2912 
Q 1568 2701 1920 2701 
z
M 1920 454 
Q 2330 454 2586 694 
Q 2842 934 2842 1318 
Q 2842 1709 2586 1949 
Q 2330 2189 1920 2189 
Q 1510 2189 1254 1949 
Q 998 1709 998 1318 
Q 998 934 1254 694 
Q 1510 454 1920 454 
z
" transform="scale(0.015625)"/>
       </defs>
       <use xlink:href="#JetBrainsMono-Regular-2db"/>
       <use xlink:href="#JetBrainsMono-Regular-2d5" transform="translate(60 0)"/>
       <use xlink:href="#JetBrainsMono-Regular-329" transform="translate(120 0)"/>
       <use xlink:href="#JetBrainsMono-Regular-2dc" transform="translate(180 0)"/>
      </g>
     </g>
    </g>
    <g id="ytick_6">
     <g id="line2d_27">
      <path d="M 55.296 68.262857 
L 546.048 68.262857 
" clip-path="url(#p18445c7585)" style="fill: none; stroke-dasharray: 2.22,0.96; stroke-dashoffset: 0; stroke: #eaecf0; stroke-opacity: 0.7; stroke-width: 0.6"/>
     </g>
     <g id="line2d_28">
      <g>
       <use xlink:href="#ma089617abb" x="55.296" y="68.262857" style="fill: #667085; stroke: #667085; stroke-width: 0.8"/>
      </g>
     </g>
     <g id="text_14">
      <!-- 72.0 -->
      <g style="fill: #667085" transform="translate(24.296 73.362857) scale(0.1 -0.1)">
       <use xlink:href="#JetBrainsMono-Regular-2db"/>
       <use xlink:href="#JetBrainsMono-Regular-2d6" transform="translate(60 0)"/>
       <use xlink:href="#JetBrainsMono-Regular-329" transform="translate(120 0)"/>
       <use xlink:href="#JetBrainsMono-Regular-2d4" transform="translate(180 0)"/>
      </g>
     </g>
    </g>
    <g id="text_15">
     <!-- Solved Problems -->
     <g style="fill: #667085" transform="translate(17.296 235.08) rotate(-90) scale(0.1 -0.1)">
      <defs>
       <path id="JetBrainsMono-Regular-81" d="M 1946 -64 
Q 1267 -64 864 294 
Q 461 653 461 1280 
L 1037 1280 
Q 1037 890 1286 669 
Q 1536 448 1946 448 
Q 2342 448 2579 678 
Q 2816 909 2816 1280 
Q 2816 1562 2665 1770 
Q 2515 1978 2234 2054 
L 1523 2253 
Q 1082 2381 829 2710 
Q 576 3040 576 3488 
Q 576 3859 742 4140 
Q 909 4422 1209 4579 
Q 1510 4736 1901 4736 
Q 2298 4736 2602 4579 
Q 2906 4422 3078 4144 
Q 3251 3866 3251 3501 
L 2675 3501 
Q 2675 3821 2457 4022 
Q 2240 4224 1901 4224 
Q 1562 4224 1350 4022 
Q 1139 3821 1139 3501 
Q 1139 3245 1276 3062 
Q 1414 2880 1664 2810 
L 2394 2605 
Q 2861 2477 3120 2121 
Q 3379 1766 3379 1280 
Q 3379 666 2988 301 
Q 2598 -64 1946 -64 
z
" transform="scale(0.015625)"/>
       <path id="JetBrainsMono-Regular-122" d="M 1920 -51 
Q 1286 -51 912 320 
Q 538 691 538 1357 
L 538 2163 
Q 538 2835 909 3203 
Q 1280 3571 1920 3571 
Q 2560 3571 2931 3203 
Q 3302 2835 3302 2163 
L 3302 1357 
Q 3302 691 2928 320 
Q 2554 -51 1920 -51 
z
M 1920 461 
Q 2298 461 2512 672 
Q 2726 883 2726 1293 
L 2726 2227 
Q 2726 2637 2512 2848 
Q 2298 3059 1920 3059 
Q 1549 3059 1331 2848 
Q 1114 2637 1114 2227 
L 1114 1293 
Q 1114 883 1331 672 
Q 1549 461 1920 461 
z
" transform="scale(0.015625)"/>
       <path id="JetBrainsMono-Regular-113" d="M 2432 0 
Q 1965 0 1686 272 
Q 1408 544 1408 992 
L 1408 4147 
L 192 4147 
L 192 4672 
L 1984 4672 
L 1984 992 
Q 1984 774 2105 649 
Q 2227 525 2432 525 
L 3520 525 
L 3520 0 
L 2432 0 
z
" transform="scale(0.015625)"/>
       <path id="JetBrainsMono-Regular-169" d="M 1542 0 
L 346 3520 
L 966 3520 
L 1734 1152 
Q 1805 941 1856 745 
Q 1907 550 1933 442 
Q 1965 550 2009 745 
Q 2054 941 2118 1152 
L 2886 3520 
L 3494 3520 
L 2298 0 
L 1542 0 
z
" transform="scale(0.015625)"/>
       <path id="JetBrainsMono-Regular-e1" d="M 1920 -64 
Q 1299 -64 918 310 
Q 538 685 538 1344 
L 538 2176 
Q 538 2835 918 3209 
Q 1299 3584 1920 3584 
Q 2336 3584 2646 3417 
Q 2957 3251 3129 2950 
Q 3302 2650 3302 2240 
L 3302 1613 
L 1101 1613 
L 1101 1280 
Q 1101 890 1325 662 
Q 1549 435 1920 435 
Q 2240 435 2448 560 
Q 2656 685 2701 896 
L 3277 896 
Q 3219 454 2848 195 
Q 2477 -64 1920 -64 
z
M 1101 2061 
L 2739 2061 
L 2739 2240 
Q 2739 2656 2524 2883 
Q 2310 3110 1920 3110 
Q 1530 3110 1315 2883 
Q 1101 2656 1101 2240 
L 1101 2061 
z
" transform="scale(0.015625)"/>
       <path id="JetBrainsMono-Regular-dd" d="M 1715 -64 
Q 1190 -64 873 288 
Q 557 640 557 1242 
L 557 2272 
Q 557 2880 870 3232 
Q 1184 3584 1715 3584 
Q 2112 3584 2371 3385 
Q 2630 3187 2682 2848 
L 2688 2848 
L 2675 3648 
L 2675 4672 
L 3251 4672 
L 3251 0 
L 2675 0 
L 2675 672 
L 2669 672 
Q 2624 326 2368 131 
Q 2112 -64 1715 -64 
z
M 1907 435 
Q 2266 435 2470 659 
Q 2675 883 2675 1280 
L 2675 2240 
Q 2675 2637 2470 2861 
Q 2266 3085 1907 3085 
Q 1542 3085 1337 2896 
Q 1133 2707 1133 2272 
L 1133 1248 
Q 1133 819 1337 627 
Q 1542 435 1907 435 
z
" transform="scale(0.015625)"/>
       <path id="JetBrainsMono-Regular-3be" transform="scale(0.015625)"/>
       <path id="JetBrainsMono-Regular-7a" d="M 589 0 
L 589 4672 
L 2093 4672 
Q 2746 4672 3133 4297 
Q 3520 3923 3520 3296 
Q 3520 2669 3133 2294 
Q 2746 1920 2093 1920 
L 1165 1920 
L 1165 0 
L 589 0 
z
M 1165 2438 
L 2093 2438 
Q 2470 2438 2697 2672 
Q 2925 2906 2925 3296 
Q 2925 3693 2697 3923 
Q 2470 4154 2093 4154 
L 1165 4154 
L 1165 2438 
z
" transform="scale(0.015625)"/>
       <path id="JetBrainsMono-Regular-140" d="M 717 0 
L 717 3520 
L 1293 3520 
L 1293 2848 
L 1306 2848 
Q 1350 3187 1593 3385 
Q 1837 3584 2246 3584 
Q 2797 3584 3094 3254 
Q 3392 2925 3392 2317 
L 3392 2016 
L 2816 2016 
L 2816 2317 
Q 2816 3085 2067 3085 
Q 1690 3085 1491 2867 
Q 1293 2650 1293 2240 
L 1293 0 
L 717 0 
z
" transform="scale(0.015625)"/>
       <path id="JetBrainsMono-Regular-d6" d="M 2125 -64 
Q 1728 -64 1472 131 
Q 1216 326 1171 672 
L 1165 672 
L 1165 0 
L 589 0 
L 589 4672 
L 1165 4672 
L 1165 3648 
L 1152 2848 
L 1158 2848 
Q 1210 3187 1469 3385 
Q 1728 3584 2125 3584 
Q 2656 3584 2969 3232 
Q 3283 2880 3283 2272 
L 3283 1242 
Q 3283 640 2969 288 
Q 2656 -64 2125 -64 
z
M 1933 435 
Q 2298 435 2502 627 
Q 2707 819 2707 1248 
L 2707 2272 
Q 2707 2707 2502 2896 
Q 2298 3085 1933 3085 
Q 1581 3085 1373 2861 
Q 1165 2637 1165 2240 
L 1165 1280 
Q 1165 883 1373 659 
Q 1581 435 1933 435 
z
" transform="scale(0.015625)"/>
       <path id="JetBrainsMono-Regular-11a" d="M 384 0 
L 384 3520 
L 883 3520 
L 883 3053 
L 896 3053 
Q 928 3290 1085 3437 
Q 1242 3584 1485 3584 
Q 1715 3584 1875 3449 
Q 2035 3315 2106 3085 
L 2112 3085 
Q 2157 3315 2313 3449 
Q 2470 3584 2714 3584 
Q 3053 3584 3254 3331 
Q 3456 3078 3456 2675 
L 3456 0 
L 2918 0 
L 2918 2682 
Q 2918 2893 2816 3017 
Q 2714 3142 2534 3142 
Q 2362 3142 2259 3020 
Q 2157 2899 2157 2688 
L 2157 0 
L 1683 0 
L 1683 2682 
Q 1683 2893 1580 3017 
Q 1478 3142 1306 3142 
Q 1126 3142 1024 3020 
Q 922 2899 922 2688 
L 922 0 
L 384 0 
z
" transform="scale(0.015625)"/>
       <path id="JetBrainsMono-Regular-144" d="M 1779 -51 
Q 1190 -51 867 214 
Q 544 480 544 966 
L 1120 966 
Q 1120 723 1293 585 
Q 1466 448 1779 448 
L 2061 448 
Q 2381 448 2557 589 
Q 2733 730 2733 986 
Q 2733 1440 2317 1498 
L 1344 1638 
Q 986 1690 787 1936 
Q 589 2182 589 2586 
Q 589 3046 905 3308 
Q 1222 3571 1779 3571 
L 2061 3571 
Q 2573 3571 2896 3318 
Q 3219 3066 3245 2656 
L 2662 2656 
Q 2650 2842 2486 2963 
Q 2323 3085 2061 3085 
L 1779 3085 
Q 1485 3085 1318 2950 
Q 1152 2816 1152 2586 
Q 1152 2214 1491 2163 
L 2400 2035 
Q 3296 1907 3296 986 
Q 3296 493 2973 221 
Q 2650 -51 2061 -51 
L 1779 -51 
z
" transform="scale(0.015625)"/>
      </defs>
      <use xlink:href="#JetBrainsMono-Regular-81"/>
      <use xlink:href="#JetBrainsMono-Regular-122" transform="translate(60 0)"/>
      <use xlink:href="#JetBrainsMono-Regular-113" transform="translate(120 0)"/>
      <use xlink:href="#JetBrainsMono-Regular-169" transform="translate(180 0)"/>
      <use xlink:href="#JetBrainsMono-Regular-e1" transform="translate(240 0)"/>
      <use xlink:href="#JetBrainsMono-Regular-dd" transform="translate(300 0)"/>
      <use xlink:href="#JetBrainsMono-Regular-3be" transform="translate(360 0)"/>
      <use xlink:href="#JetBrainsMono-Regular-7a" transform="translate(420 0)"/>
      <use xlink:href="#JetBrainsMono-Regular-140" transform="translate(480 0)"/>
      <use xlink:href="#JetBrainsMono-Regular-122" transform="translate(540 0)"/>
      <use xlink:href="#JetBrainsMono-Regular-d6" transform="translate(600 0)"/>
      <use xlink:href="#JetBrainsMono-Regular-113" transform="translate(660 0)"/>
      <use xlink:href="#JetBrainsMono-Regular-e1" transform="translate(720 0)"/>
      <use xlink:href="#JetBrainsMono-Regular-11a" transform="translate(780 0)"/>
      <use xlink:href="#JetBrainsMono-Regular-144" transform="translate(840 0)"/>
     </g>
    </g>
   </g>
   <g id="patch_3">
    <path d="M 55.296 324.72 
L 55.296 55.44 
" style="fill: none; stroke: #d0d5dd; stroke-width: 0.8; stroke-linejoin: miter; stroke-linecap: square"/>
   </g>
   <g id="patch_4">
    <path d="M 55.296 324.72 
L 546.048 324.72 
" style="fill: none; stroke: #d0d5dd; stroke-width: 0.8; stroke-linejoin: miter; stroke-linecap: square"/>
   </g>
   <g id="FillBetweenPolyCollection_1">
    <defs>
     <path id="m98780d59d6" d="M 63.4752 -71.28 
L 63.4752 -327.737143 
L 65.061801 -327.737143 
L 66.648401 -327.737143 
L 68.235002 -327.737143 
L 69.821603 -327.737143 
L 71.408203 -327.737143 
L 72.994804 -327.737143 
L 74.581405 -327.737143 
L 76.168005 -327.737143 
L 77.754606 -327.737143 
L 79.341207 -327.737143 
L 80.927807 -327.737143 
L 82.514408 -327.737143 
L 84.101009 -327.737143 
L 85.687609 -327.737143 
L 87.27421 -327.737143 
L 88.860811 -327.737143 
L 90.447411 -327.737143 
L 92.034012 -327.737143 
L 93.620613 -327.737143 
L 95.207213 -327.737143 
L 96.793814 -327.737143 
L 98.380415 -327.737143 
L 99.967015 -327.737143 
L 101.553616 -327.737143 
L 103.140217 -327.737143 
L 104.726817 -327.737143 
L 106.313418 -327.737143 
L 107.900019 -327.737143 
L 109.486619 -327.737143 
L 111.07322 -327.737143 
L 112.659821 -327.737143 
L 114.246421 -327.737143 
L 115.833022 -327.737143 
L 117.419623 -327.737143 
L 119.006223 -327.737143 
L 120.592824 -327.737143 
L 122.179425 -327.737143 
L 123.766025 -327.737143 
L 125.352626 -327.737143 
L 126.939227 -327.737143 
L 128.525827 -327.737143 
L 130.112428 -327.737143 
L 131.699029 -327.737143 
L 133.285629 -327.737143 
L 134.87223 -327.737143 
L 136.458831 -327.737143 
L 138.045431 -327.737143 
L 139.632032 -327.737143 
L 141.218633 -327.737143 
L 142.805233 -327.737143 
L 144.391834 -327.737143 
L 145.978435 -327.737143 
L 147.565035 -327.737143 
L 149.151636 -327.737143 
L 150.738237 -327.737143 
L 152.324837 -327.737143 
L 153.911438 -327.737143 
L 155.498039 -327.737143 
L 157.084639 -327.737143 
L 158.67124 -327.737143 
L 160.257841 -327.737143 
L 161.844441 -327.737143 
L 163.431042 -327.737143 
L 165.017643 -327.737143 
L 166.604243 -327.737143 
L 168.190844 -327.737143 
L 169.777445 -327.737143 
L 171.364045 -327.737143 
L 172.950646 -327.737143 
L 174.537247 -327.737143 
L 176.123847 -327.737143 
L 177.710448 -327.737143 
L 179.297049 -327.737143 
L 180.883649 -327.737143 
L 182.47025 -327.737143 
L 184.056851 -327.737143 
L 185.643452 -327.737143 
L 187.230052 -327.737143 
L 188.816653 -327.737143 
L 190.403254 -327.737143 
L 191.989854 -327.737143 
L 193.576455 -327.737143 
L 195.163056 -327.737143 
L 196.749656 -327.737143 
L 198.336257 -327.737143 
L 199.922858 -327.737143 
L 201.509458 -327.737143 
L 203.096059 -327.737143 
L 204.68266 -327.737143 
L 206.26926 -327.737143 
L 207.855861 -327.737143 
L 209.442462 -327.737143 
L 211.029062 -327.737143 
L 212.615663 -327.737143 
L 214.202264 -327.737143 
L 215.788864 -327.737143 
L 217.375465 -327.737143 
L 218.962066 -327.737143 
L 220.548666 -327.737143 
L 222.135267 -327.737143 
L 223.721868 -327.737143 
L 225.308468 -327.737143 
L 226.895069 -327.737143 
L 228.48167 -327.737143 
L 230.06827 -327.737143 
L 231.654871 -327.737143 
L 233.241472 -327.737143 
L 234.828072 -327.737143 
L 236.414673 -327.737143 
L 238.001274 -327.737143 
L 239.587874 -327.737143 
L 241.174475 -327.737143 
L 242.761076 -327.737143 
L 244.347676 -327.737143 
L 245.934277 -327.737143 
L 247.520878 -327.737143 
L 249.107478 -327.737143 
L 250.694079 -327.737143 
L 252.28068 -327.737143 
L 253.86728 -327.737143 
L 255.453881 -327.737143 
L 257.040482 -327.737143 
L 258.627082 -327.737143 
L 260.213683 -327.737143 
L 261.800284 -327.737143 
L 263.386884 -327.737143 
L 264.973485 -327.737143 
L 266.560086 -327.737143 
L 268.146686 -327.737143 
L 269.733287 -327.737143 
L 271.319888 -327.737143 
L 272.906488 -327.737143 
L 274.493089 -327.737143 
L 276.07969 -327.737143 
L 277.66629 -327.737143 
L 279.252891 -327.737143 
L 280.839492 -327.737143 
L 282.426092 -327.737143 
L 284.012693 -327.737143 
L 285.599294 -327.737143 
L 287.185894 -327.737143 
L 288.772495 -327.737143 
L 290.359096 -327.737143 
L 291.945696 -327.737143 
L 293.532297 -327.737143 
L 295.118898 -327.737143 
L 296.705498 -327.737143 
L 298.292099 -327.737143 
L 299.8787 -327.737143 
L 301.4653 -327.737143 
L 303.051901 -327.737143 
L 304.638502 -327.737143 
L 306.225102 -327.737143 
L 307.811703 -327.737143 
L 309.398304 -327.737143 
L 310.984904 -327.737143 
L 312.571505 -327.737143 
L 314.158106 -327.737143 
L 315.744706 -327.737143 
L 317.331307 -327.737143 
L 318.917908 -327.737143 
L 320.504508 -327.737143 
L 322.091109 -327.737143 
L 323.67771 -327.737143 
L 325.26431 -327.737143 
L 326.850911 -327.737143 
L 328.437512 -327.737143 
L 330.024112 -327.737143 
L 331.610713 -327.737143 
L 333.197314 -327.737143 
L 334.783914 -327.737143 
L 336.370515 -327.737143 
L 337.957116 -327.737143 
L 339.543716 -327.737143 
L 341.130317 -327.737143 
L 342.716918 -327.737143 
L 344.303518 -327.737143 
L 345.890119 -327.737143 
L 347.47672 -327.737143 
L 349.06332 -327.737143 
L 350.649921 -327.737143 
L 352.236522 -327.737143 
L 353.823122 -327.737143 
L 355.409723 -327.737143 
L 356.996324 -327.737143 
L 358.582924 -327.737143 
L 360.169525 -327.737143 
L 361.756126 -327.737143 
L 363.342726 -327.737143 
L 364.929327 -327.737143 
L 366.515928 -327.737143 
L 368.102528 -327.737143 
L 369.689129 -327.737143 
L 371.27573 -327.737143 
L 372.86233 -327.737143 
L 374.448931 -327.737143 
L 376.035532 -327.737143 
L 377.622132 -327.737143 
L 379.208733 -327.737143 
L 380.795334 -327.737143 
L 382.381934 -327.737143 
L 383.968535 -327.737143 
L 385.555136 -327.737143 
L 387.141736 -327.737143 
L 388.728337 -327.737143 
L 390.314938 -327.737143 
L 391.901538 -327.737143 
L 393.488139 -327.737143 
L 395.07474 -327.737143 
L 396.66134 -327.737143 
L 398.247941 -327.737143 
L 399.834542 -327.737143 
L 401.421142 -327.737143 
L 403.007743 -327.737143 
L 404.594344 -327.737143 
L 406.180944 -327.737143 
L 407.767545 -327.737143 
L 409.354146 -327.737143 
L 410.940746 -327.737143 
L 412.527347 -327.737143 
L 414.113948 -327.737143 
L 415.700548 -327.737143 
L 417.287149 -327.737143 
L 418.87375 -327.737143 
L 420.460351 -327.737143 
L 422.046951 -327.737143 
L 423.633552 -327.737143 
L 425.220153 -327.737143 
L 426.806753 -327.737143 
L 428.393354 -327.737143 
L 429.979955 -327.737143 
L 431.566555 -327.737143 
L 433.153156 -327.737143 
L 434.739757 -327.737143 
L 436.326357 -327.737143 
L 437.912958 -327.737143 
L 439.499559 -327.737143 
L 441.086159 -327.737143 
L 442.67276 -327.737143 
L 444.259361 -327.737143 
L 445.845961 -327.737143 
L 447.432562 -327.737143 
L 449.019163 -327.737143 
L 450.605763 -327.737143 
L 452.192364 -327.737143 
L 453.778965 -327.737143 
L 455.365565 -327.737143 
L 456.952166 -327.737143 
L 458.538767 -327.737143 
L 460.125367 -327.737143 
L 461.711968 -327.737143 
L 463.298569 -327.737143 
L 464.885169 -327.737143 
L 466.47177 -327.737143 
L 468.058371 -327.737143 
L 469.644971 -327.737143 
L 471.231572 -327.737143 
L 472.818173 -327.737143 
L 474.404773 -327.737143 
L 475.991374 -327.737143 
L 477.577975 -327.737143 
L 479.164575 -327.737143 
L 480.751176 -327.737143 
L 482.337777 -327.737143 
L 483.924377 -327.737143 
L 485.510978 -327.737143 
L 487.097579 -327.737143 
L 488.684179 -327.737143 
L 490.27078 -327.737143 
L 491.857381 -327.737143 
L 493.443981 -327.737143 
L 495.030582 -327.737143 
L 496.617183 -327.737143 
L 498.203783 -327.737143 
L 499.790384 -327.737143 
L 501.376985 -327.737143 
L 502.963585 -327.737143 
L 504.550186 -327.737143 
L 506.136787 -327.737143 
L 507.723387 -327.737143 
L 509.309988 -327.737143 
L 510.896589 -327.737143 
L 512.483189 -327.737143 
L 514.06979 -327.737143 
L 515.656391 -327.737143 
L 517.242991 -327.737143 
L 518.829592 -327.737143 
L 520.416193 -327.737143 
L 522.002793 -327.737143 
L 523.589394 -327.737143 
L 525.175995 -327.737143 
L 526.762595 -327.737143 
L 528.349196 -327.737143 
L 529.935797 -327.737143 
L 531.522397 -327.737143 
L 533.108998 -327.737143 
L 534.695599 -327.737143 
L 536.282199 -327.737143 
L 537.8688 -327.737143 
L 537.8688 -71.28 
L 537.8688 -71.28 
L 536.282199 -71.28 
L 534.695599 -71.28 
L 533.108998 -71.28 
L 531.522397 -71.28 
L 529.935797 -71.28 
L 528.349196 -71.28 
L 526.762595 -71.28 
L 525.175995 -71.28 
L 523.589394 -71.28 
L 522.002793 -71.28 
L 520.416193 -71.28 
L 518.829592 -71.28 
L 517.242991 -71.28 
L 515.656391 -71.28 
L 514.06979 -71.28 
L 512.483189 -71.28 
L 510.896589 -71.28 
L 509.309988 -71.28 
L 507.723387 -71.28 
L 506.136787 -71.28 
L 504.550186 -71.28 
L 502.963585 -71.28 
L 501.376985 -71.28 
L 499.790384 -71.28 
L 498.203783 -71.28 
L 496.617183 -71.28 
L 495.030582 -71.28 
L 493.443981 -71.28 
L 491.857381 -71.28 
L 490.27078 -71.28 
L 488.684179 -71.28 
L 487.097579 -71.28 
L 485.510978 -71.28 
L 483.924377 -71.28 
L 482.337777 -71.28 
L 480.751176 -71.28 
L 479.164575 -71.28 
L 477.577975 -71.28 
L 475.991374 -71.28 
L 474.404773 -71.28 
L 472.818173 -71.28 
L 471.231572 -71.28 
L 469.644971 -71.28 
L 468.058371 -71.28 
L 466.47177 -71.28 
L 464.885169 -71.28 
L 463.298569 -71.28 
L 461.711968 -71.28 
L 460.125367 -71.28 
L 458.538767 -71.28 
L 456.952166 -71.28 
L 455.365565 -71.28 
L 453.778965 -71.28 
L 452.192364 -71.28 
L 450.605763 -71.28 
L 449.019163 -71.28 
L 447.432562 -71.28 
L 445.845961 -71.28 
L 444.259361 -71.28 
L 442.67276 -71.28 
L 441.086159 -71.28 
L 439.499559 -71.28 
L 437.912958 -71.28 
L 436.326357 -71.28 
L 434.739757 -71.28 
L 433.153156 -71.28 
L 431.566555 -71.28 
L 429.979955 -71.28 
L 428.393354 -71.28 
L 426.806753 -71.28 
L 425.220153 -71.28 
L 423.633552 -71.28 
L 422.046951 -71.28 
L 420.460351 -71.28 
L 418.87375 -71.28 
L 417.287149 -71.28 
L 415.700548 -71.28 
L 414.113948 -71.28 
L 412.527347 -71.28 
L 410.940746 -71.28 
L 409.354146 -71.28 
L 407.767545 -71.28 
L 406.180944 -71.28 
L 404.594344 -71.28 
L 403.007743 -71.28 
L 401.421142 -71.28 
L 399.834542 -71.28 
L 398.247941 -71.28 
L 396.66134 -71.28 
L 395.07474 -71.28 
L 393.488139 -71.28 
L 391.901538 -71.28 
L 390.314938 -71.28 
L 388.728337 -71.28 
L 387.141736 -71.28 
L 385.555136 -71.28 
L 383.968535 -71.28 
L 382.381934 -71.28 
L 380.795334 -71.28 
L 379.208733 -71.28 
L 377.622132 -71.28 
L 376.035532 -71.28 
L 374.448931 -71.28 
L 372.86233 -71.28 
L 371.27573 -71.28 
L 369.689129 -71.28 
L 368.102528 -71.28 
L 366.515928 -71.28 
L 364.929327 -71.28 
L 363.342726 -71.28 
L 361.756126 -71.28 
L 360.169525 -71.28 
L 358.582924 -71.28 
L 356.996324 -71.28 
L 355.409723 -71.28 
L 353.823122 -71.28 
L 352.236522 -71.28 
L 350.649921 -71.28 
L 349.06332 -71.28 
L 347.47672 -71.28 
L 345.890119 -71.28 
L 344.303518 -71.28 
L 342.716918 -71.28 
L 341.130317 -71.28 
L 339.543716 -71.28 
L 337.957116 -71.28 
L 336.370515 -71.28 
L 334.783914 -71.28 
L 333.197314 -71.28 
L 331.610713 -71.28 
L 330.024112 -71.28 
L 328.437512 -71.28 
L 326.850911 -71.28 
L 325.26431 -71.28 
L 323.67771 -71.28 
L 322.091109 -71.28 
L 320.504508 -71.28 
L 318.917908 -71.28 
L 317.331307 -71.28 
L 315.744706 -71.28 
L 314.158106 -71.28 
L 312.571505 -71.28 
L 310.984904 -71.28 
L 309.398304 -71.28 
L 307.811703 -71.28 
L 306.225102 -71.28 
L 304.638502 -71.28 
L 303.051901 -71.28 
L 301.4653 -71.28 
L 299.8787 -71.28 
L 298.292099 -71.28 
L 296.705498 -71.28 
L 295.118898 -71.28 
L 293.532297 -71.28 
L 291.945696 -71.28 
L 290.359096 -71.28 
L 288.772495 -71.28 
L 287.185894 -71.28 
L 285.599294 -71.28 
L 284.012693 -71.28 
L 282.426092 -71.28 
L 280.839492 -71.28 
L 279.252891 -71.28 
L 277.66629 -71.28 
L 276.07969 -71.28 
L 274.493089 -71.28 
L 272.906488 -71.28 
L 271.319888 -71.28 
L 269.733287 -71.28 
L 268.146686 -71.28 
L 266.560086 -71.28 
L 264.973485 -71.28 
L 263.386884 -71.28 
L 261.800284 -71.28 
L 260.213683 -71.28 
L 258.627082 -71.28 
L 257.040482 -71.28 
L 255.453881 -71.28 
L 253.86728 -71.28 
L 252.28068 -71.28 
L 250.694079 -71.28 
L 249.107478 -71.28 
L 247.520878 -71.28 
L 245.934277 -71.28 
L 244.347676 -71.28 
L 242.761076 -71.28 
L 241.174475 -71.28 
L 239.587874 -71.28 
L 238.001274 -71.28 
L 236.414673 -71.28 
L 234.828072 -71.28 
L 233.241472 -71.28 
L 231.654871 -71.28 
L 230.06827 -71.28 
L 228.48167 -71.28 
L 226.895069 -71.28 
L 225.308468 -71.28 
L 223.721868 -71.28 
L 222.135267 -71.28 
L 220.548666 -71.28 
L 218.962066 -71.28 
L 217.375465 -71.28 
L 215.788864 -71.28 
L 214.202264 -71.28 
L 212.615663 -71.28 
L 211.029062 -71.28 
L 209.442462 -71.28 
L 207.855861 -71.28 
L 206.26926 -71.28 
L 204.68266 -71.28 
L 203.096059 -71.28 
L 201.509458 -71.28 
L 199.922858 -71.28 
L 198.336257 -71.28 
L 196.749656 -71.28 
L 195.163056 -71.28 
L 193.576455 -71.28 
L 191.989854 -71.28 
L 190.403254 -71.28 
L 188.816653 -71.28 
L 187.230052 -71.28 
L 185.643452 -71.28 
L 184.056851 -71.28 
L 182.47025 -71.28 
L 180.883649 -71.28 
L 179.297049 -71.28 
L 177.710448 -71.28 
L 176.123847 -71.28 
L 174.537247 -71.28 
L 172.950646 -71.28 
L 171.364045 -71.28 
L 169.777445 -71.28 
L 168.190844 -71.28 
L 166.604243 -71.28 
L 165.017643 -71.28 
L 163.431042 -71.28 
L 161.844441 -71.28 
L 160.257841 -71.28 
L 158.67124 -71.28 
L 157.084639 -71.28 
L 155.498039 -71.28 
L 153.911438 -71.28 
L 152.324837 -71.28 
L 150.738237 -71.28 
L 149.151636 -71.28 
L 147.565035 -71.28 
L 145.978435 -71.28 
L 144.391834 -71.28 
L 142.805233 -71.28 
L 141.218633 -71.28 
L 139.632032 -71.28 
L 138.045431 -71.28 
L 136.458831 -71.28 
L 134.87223 -71.28 
L 133.285629 -71.28 
L 131.699029 -71.28 
L 130.112428 -71.28 
L 128.525827 -71.28 
L 126.939227 -71.28 
L 125.352626 -71.28 
L 123.766025 -71.28 
L 122.179425 -71.28 
L 120.592824 -71.28 
L 119.006223 -71.28 
L 117.419623 -71.28 
L 115.833022 -71.28 
L 114.246421 -71.28 
L 112.659821 -71.28 
L 111.07322 -71.28 
L 109.486619 -71.28 
L 107.900019 -71.28 
L 106.313418 -71.28 
L 104.726817 -71.28 
L 103.140217 -71.28 
L 101.553616 -71.28 
L 99.967015 -71.28 
L 98.380415 -71.28 
L 96.793814 -71.28 
L 95.207213 -71.28 
L 93.620613 -71.28 
L 92.034012 -71.28 
L 90.447411 -71.28 
L 88.860811 -71.28 
L 87.27421 -71.28 
L 85.687609 -71.28 
L 84.101009 -71.28 
L 82.514408 -71.28 
L 80.927807 -71.28 
L 79.341207 -71.28 
L 77.754606 -71.28 
L 76.168005 -71.28 
L 74.581405 -71.28 
L 72.994804 -71.28 
L 71.408203 -71.28 
L 69.821603 -71.28 
L 68.235002 -71.28 
L 66.648401 -71.28 
L 65.061801 -71.28 
L 63.4752 -71.28 
z
" style="stroke: #4f46e5; stroke-opacity: 0.12"/>
    </defs>
    <g clip-path="url(#p18445c7585)">
     <use xlink:href="#m98780d59d6" x="0" y="396" style="fill: #4f46e5; fill-opacity: 0.12; stroke: #4f46e5; stroke-opacity: 0.12"/>
    </g>
   </g>
   <g id="text_16">
    <!-- 72 -->
    <g style="fill: #4f46e5" transform="translate(540.8688 65.262857) scale(0.12 -0.12)">
     <defs>
      <path id="JetBrainsMono-Bold-2db" d="M 1011 0 
L 2720 3968 
L 1229 3968 
L 1229 3206 
L 429 3206 
L 429 4672 
L 3584 4672 
L 3584 3968 
L 1888 0 
L 1011 0 
z
" transform="scale(0.015625)"/>
      <path id="JetBrainsMono-Bold-2d6" d="M 474 0 
L 474 723 
L 2157 2445 
Q 2566 2874 2566 3315 
Q 2566 3629 2384 3824 
Q 2202 4019 1894 4019 
Q 1581 4019 1392 3817 
Q 1203 3616 1203 3283 
L 403 3283 
Q 403 3718 595 4044 
Q 787 4371 1126 4553 
Q 1466 4736 1914 4736 
Q 2355 4736 2688 4563 
Q 3021 4390 3203 4080 
Q 3386 3770 3386 3354 
Q 3386 2995 3216 2636 
Q 3046 2278 2656 1894 
L 1478 723 
L 3443 723 
L 3443 0 
L 474 0 
z
" transform="scale(0.015625)"/>
     </defs>
     <use xlink:href="#JetBrainsMono-Bold-2db"/>
     <use xlink:href="#JetBrainsMono-Bold-2d6" transform="translate(60 0)"/>
    </g>
   </g>
   <g id="text_17">
    <!-- Overall Progress -->
    <g style="fill: #4f46e5" transform="translate(55.296 50.34) scale(0.17 -0.17)">
     <defs>
      <path id="JetBrainsMono-Bold-60" d="M 1920 -64 
Q 1248 -64 854 320 
Q 461 704 461 1382 
L 461 3290 
Q 461 3968 854 4352 
Q 1248 4736 1920 4736 
Q 2592 4736 2985 4352 
Q 3379 3968 3379 3296 
L 3379 1382 
Q 3379 704 2985 320 
Q 2592 -64 1920 -64 
z
M 1920 640 
Q 2246 640 2412 816 
Q 2579 992 2579 1318 
L 2579 3354 
Q 2579 3680 2412 3856 
Q 2246 4032 1920 4032 
Q 1594 4032 1427 3856 
Q 1261 3680 1261 3354 
L 1261 1318 
Q 1261 992 1427 816 
Q 1594 640 1920 640 
z
" transform="scale(0.015625)"/>
      <path id="JetBrainsMono-Bold-169" d="M 1414 0 
L 230 3520 
L 1069 3520 
L 1747 1382 
Q 1811 1190 1859 995 
Q 1907 800 1926 659 
Q 1952 800 1993 995 
Q 2035 1190 2093 1376 
L 2765 3520 
L 3610 3520 
L 2432 0 
L 1414 0 
z
" transform="scale(0.015625)"/>
      <path id="JetBrainsMono-Bold-e1" d="M 1926 -64 
Q 1478 -64 1145 109 
Q 813 282 630 598 
Q 448 915 448 1344 
L 448 2176 
Q 448 2605 630 2921 
Q 813 3238 1145 3411 
Q 1478 3584 1926 3584 
Q 2368 3584 2697 3411 
Q 3027 3238 3209 2928 
Q 3392 2618 3392 2202 
L 3392 1562 
L 1216 1562 
L 1216 1318 
Q 1216 960 1401 777 
Q 1587 595 1926 595 
Q 2176 595 2352 681 
Q 2528 768 2560 934 
L 3354 934 
Q 3270 480 2880 208 
Q 2490 -64 1926 -64 
z
M 1216 2202 
L 1216 2080 
L 2624 2086 
L 2624 2208 
Q 2624 2573 2445 2771 
Q 2266 2970 1926 2970 
Q 1574 2970 1395 2768 
Q 1216 2566 1216 2202 
z
" transform="scale(0.015625)"/>
      <path id="JetBrainsMono-Bold-140" d="M 621 0 
L 621 3520 
L 1402 3520 
L 1402 2835 
Q 1466 3181 1718 3382 
Q 1971 3584 2374 3584 
Q 2912 3584 3213 3238 
Q 3514 2893 3514 2272 
L 3514 1939 
L 2714 1939 
L 2714 2234 
Q 2714 2554 2547 2723 
Q 2381 2893 2074 2893 
Q 1754 2893 1587 2701 
Q 1421 2509 1421 2157 
L 1421 0 
L 621 0 
z
" transform="scale(0.015625)"/>
      <path id="JetBrainsMono-Bold-bd" d="M 1530 -64 
Q 992 -64 681 240 
Q 371 544 371 1037 
Q 371 1549 723 1853 
Q 1075 2157 1690 2157 
L 2547 2157 
L 2547 2406 
Q 2547 2938 1926 2938 
Q 1645 2938 1478 2829 
Q 1312 2720 1293 2522 
L 525 2522 
Q 550 2995 924 3289 
Q 1299 3584 1933 3584 
Q 2605 3584 2976 3270 
Q 3347 2957 3347 2387 
L 3347 0 
L 2566 0 
L 2566 659 
Q 2522 320 2246 128 
Q 1971 -64 1530 -64 
z
M 1786 589 
Q 2138 589 2342 761 
Q 2547 934 2547 1222 
L 2547 1638 
L 1728 1638 
Q 1466 1638 1312 1491 
Q 1158 1344 1158 1114 
Q 1158 877 1321 733 
Q 1485 589 1786 589 
z
" transform="scale(0.015625)"/>
      <path id="JetBrainsMono-Bold-113" d="M 2490 0 
Q 1965 0 1648 313 
Q 1331 627 1331 1139 
L 1331 3949 
L 173 3949 
L 173 4672 
L 2131 4672 
L 2131 1158 
Q 2131 960 2243 841 
Q 2355 723 2547 723 
L 3578 723 
L 3578 0 
L 2490 0 
z
" transform="scale(0.015625)"/>
      <path id="JetBrainsMono-Bold-3be" transform="scale(0.015625)"/>
      <path id="JetBrainsMono-Bold-7a" d="M 493 0 
L 493 4672 
L 2048 4672 
Q 2515 4672 2864 4493 
Q 3213 4314 3405 3990 
Q 3597 3667 3597 3232 
Q 3597 2797 3405 2473 
Q 3213 2150 2864 1971 
Q 2515 1792 2048 1792 
L 1293 1792 
L 1293 0 
L 493 0 
z
M 1293 2496 
L 2048 2496 
Q 2387 2496 2585 2701 
Q 2784 2906 2784 3232 
Q 2784 3558 2585 3763 
Q 2387 3968 2048 3968 
L 1293 3968 
L 1293 2496 
z
" transform="scale(0.015625)"/>
      <path id="JetBrainsMono-Bold-122" d="M 1920 -58 
Q 1242 -58 845 323 
Q 448 704 448 1350 
L 448 2170 
Q 448 2822 845 3200 
Q 1242 3578 1920 3578 
Q 2598 3578 2995 3200 
Q 3392 2822 3392 2170 
L 3392 1350 
Q 3392 704 2995 323 
Q 2598 -58 1920 -58 
z
M 1920 640 
Q 2240 640 2416 816 
Q 2592 992 2592 1325 
L 2592 2195 
Q 2592 2528 2416 2704 
Q 2240 2880 1920 2880 
Q 1600 2880 1424 2704 
Q 1248 2528 1248 2195 
L 1248 1325 
Q 1248 992 1424 816 
Q 1600 640 1920 640 
z
" transform="scale(0.015625)"/>
      <path id="JetBrainsMono-Bold-f5" d="M 973 -1152 
L 973 -486 
L 1965 -486 
Q 2246 -486 2400 -336 
Q 2554 -186 2554 70 
L 2554 282 
L 2566 832 
Q 2458 538 2218 374 
Q 1978 211 1632 211 
Q 1094 211 777 572 
Q 461 934 461 1555 
L 461 2240 
Q 461 2854 777 3219 
Q 1094 3584 1632 3584 
Q 1978 3584 2218 3421 
Q 2458 3258 2566 2957 
L 2566 3520 
L 3347 3520 
L 3347 51 
Q 3347 -506 2979 -829 
Q 2611 -1152 1978 -1152 
L 973 -1152 
z
M 1901 896 
Q 2208 896 2377 1078 
Q 2547 1261 2547 1587 
L 2547 2202 
Q 2547 2528 2377 2710 
Q 2208 2893 1901 2893 
Q 1594 2893 1427 2717 
Q 1261 2541 1261 2227 
L 1261 1562 
Q 1261 1248 1427 1072 
Q 1594 896 1901 896 
z
" transform="scale(0.015625)"/>
      <path id="JetBrainsMono-Bold-144" d="M 1773 -58 
Q 1146 -58 781 227 
Q 416 512 416 998 
L 1203 998 
Q 1203 794 1353 685 
Q 1504 576 1773 576 
L 2054 576 
Q 2342 576 2499 685 
Q 2656 794 2656 998 
Q 2656 1190 2547 1283 
Q 2438 1376 2214 1408 
L 1338 1523 
Q 915 1581 688 1849 
Q 461 2118 461 2547 
Q 461 3046 793 3312 
Q 1126 3578 1754 3578 
L 2048 3578 
Q 2637 3578 2995 3309 
Q 3354 3040 3366 2592 
L 2573 2592 
Q 2566 2758 2425 2857 
Q 2285 2957 2048 2957 
L 1754 2957 
Q 1498 2957 1363 2851 
Q 1229 2746 1229 2566 
Q 1229 2406 1328 2329 
Q 1427 2253 1619 2234 
L 2445 2118 
Q 2931 2061 3177 1776 
Q 3424 1491 3424 1011 
Q 3424 499 3075 220 
Q 2726 -58 2054 -58 
L 1773 -58 
z
" transform="scale(0.015625)"/>
     </defs>
     <use xlink:href="#JetBrainsMono-Bold-60"/>
     <use xlink:href="#JetBrainsMono-Bold-169" transform="translate(60 0)"/>
     <use xlink:href="#JetBrainsMono-Bold-e1" transform="translate(120 0)"/>
     <use xlink:href="#JetBrainsMono-Bold-140" transform="translate(180 0)"/>
     <use xlink:href="#JetBrainsMono-Bold-bd" transform="translate(240 0)"/>
     <use xlink:href="#JetBrainsMono-Bold-113" transform="translate(300 0)"/>
     <use xlink:href="#JetBrainsMono-Bold-113" transform="translate(360 0)"/>
     <use xlink:href="#JetBrainsMono-Bold-3be" transform="translate(420 0)"/>
     <use xlink:href="#JetBrainsMono-Bold-7a" transform="translate(480 0)"/>
     <use xlink:href="#JetBrainsMono-Bold-140" transform="translate(540 0)"/>
     <use xlink:href="#JetBrainsMono-Bold-122" transform="translate(600 0)"/>
     <use xlink:href="#JetBrainsMono-Bold-f5" transform="translate(660 0)"/>
     <use xlink:href="#JetBrainsMono-Bold-140" transform="translate(720 0)"/>
     <use xlink:href="#JetBrainsMono-Bold-e1" transform="translate(780 0)"/>
     <use xlink:href="#JetBrainsMono-Bold-144" transform="translate(840 0)"/>
     <use xlink:href="#JetBrainsMono-Bold-144" transform="translate(900 0)"/>
    </g>
   </g>
   <g id="line2d_29">
    <path d="M 63.4752 68.262857 
L 537.8688 68.262857 
L 537.8688 68.262857 
" clip-path="url(#p18445c7585)" style="fill: none; stroke: #4f46e5; stroke-width: 1.4; stroke-linecap: round"/>
   </g>
   <g id="PathCollection_1">
    <defs>
     <path id="m517cae9e3d" d="M 0 2.44949 
C 0.649612 2.44949 1.272706 2.191396 1.732051 1.732051 
C 2.191396 1.272706 2.44949 0.649612 2.44949 0 
C 2.44949 -0.649612 2.191396 -1.272706 1.732051 -1.732051 
C 1.272706 -2.191396 0.649612 -2.44949 0 -2.44949 
C -0.649612 -2.44949 -1.272706 -2.191396 -1.732051 -1.732051 
C -2.191396 -1.272706 -2.44949 -0.649612 -2.44949 0 
C -2.44949 0.649612 -2.191396 1.272706 -1.732051 1.732051 
C -1.272706 2.191396 -0.649612 2.44949 0 2.44949 
z
" style="stroke: #ffffff; stroke-width: 0.8"/>
    </defs>
    <g clip-path="url(#p18445c7585)">
     <use xlink:href="#m517cae9e3d" x="537.8688" y="68.262857" style="fill: #4f46e5; stroke: #ffffff; stroke-width: 0.8"/>
    </g>
   </g>
  </g>
  <g id="axes_2">
   <g id="text_18">
    <!-- Solved -->
    <g style="fill: #667085" transform="translate(565.7472 48.312) scale(0.11 -0.11)">
     <use xlink:href="#JetBrainsMono-Regular-81"/>
     <use xlink:href="#JetBrainsMono-Regular-122" transform="translate(60 0)"/>
     <use xlink:href="#JetBrainsMono-Regular-113" transform="translate(120 0)"/>
     <use xlink:href="#JetBrainsMono-Regular-169" transform="translate(180 0)"/>
     <use xlink:href="#JetBrainsMono-Regular-e1" transform="translate(240 0)"/>
     <use xlink:href="#JetBrainsMono-Regular-dd" transform="translate(300 0)"/>
    </g>
   </g>
   <g id="text_19">
    <!-- 72 -->
    <g style="fill: #4f46e5" transform="translate(565.7472 89.088) scale(0.26 -0.26)">
     <use xlink:href="#JetBrainsMono-Bold-2db"/>
     <use xlink:href="#JetBrainsMono-Bold-2d6" transform="translate(60 0)"/>
    </g>
   </g>
   <g id="text_20">
    <!-- Files -->
    <g style="fill: #667085" transform="translate(565.7472 119.592) scale(0.11 -0.11)">
     <defs>
      <path id="JetBrainsMono-Regular-38" d="M 608 0 
L 608 4672 
L 3360 4672 
L 3360 4147 
L 1171 4147 
L 1171 2598 
L 3194 2598 
L 3194 2074 
L 1184 2074 
L 1184 0 
L 608 0 
z
" transform="scale(0.015625)"/>
      <path id="JetBrainsMono-Regular-ff" d="M 544 0 
L 544 525 
L 1792 525 
L 1792 2995 
L 672 2995 
L 672 3520 
L 2368 3520 
L 2368 525 
L 3552 525 
L 3552 0 
L 544 0 
z
M 2016 4154 
Q 1805 4154 1683 4262 
Q 1562 4371 1562 4557 
Q 1562 4749 1683 4861 
Q 1805 4973 2016 4973 
Q 2227 4973 2348 4861 
Q 2470 4749 2470 4557 
Q 2470 4371 2348 4262 
Q 2227 4154 2016 4154 
z
" transform="scale(0.015625)"/>
     </defs>
     <use xlink:href="#JetBrainsMono-Regular-38"/>
     <use xlink:href="#JetBrainsMono-Regular-ff" transform="translate(60 0)"/>
     <use xlink:href="#JetBrainsMono-Regular-113" transform="translate(120 0)"/>
     <use xlink:href="#JetBrainsMono-Regular-e1" transform="translate(180 0)"/>
     <use xlink:href="#JetBrainsMono-Regular-144" transform="translate(240 0)"/>
    </g>
   </g>
   <g id="text_21">
    <!-- 75 -->
    <g style="fill: #4f46e5" transform="translate(565.7472 148.104) scale(0.14 -0.14)">
     <defs>
      <path id="JetBrainsMono-Bold-2d9" d="M 1894 -64 
Q 1210 -64 803 297 
Q 397 659 397 1280 
L 1197 1280 
Q 1197 986 1385 810 
Q 1574 634 1901 634 
Q 2227 634 2409 810 
Q 2592 986 2592 1299 
L 2592 1606 
Q 2592 1920 2413 2096 
Q 2234 2272 1907 2272 
L 557 2272 
L 557 4672 
L 3219 4672 
L 3219 3949 
L 1312 3949 
L 1318 2976 
L 1946 2976 
Q 2637 2976 3014 2617 
Q 3392 2259 3392 1606 
L 3392 1299 
Q 3392 666 2992 301 
Q 2592 -64 1894 -64 
z
" transform="scale(0.015625)"/>
     </defs>
     <use xlink:href="#JetBrainsMono-Bold-2db"/>
     <use xlink:href="#JetBrainsMono-Bold-2d9" transform="translate(60 0)"/>
    </g>
   </g>
   <g id="text_22">
    <!-- Baekjoon -->
    <g style="fill: #667085" transform="translate(565.7472 198) scale(0.095 -0.095)">
     <defs>
      <path id="JetBrainsMono-Regular-1a" d="M 595 0 
L 595 4672 
L 1920 4672 
Q 2560 4672 2921 4352 
Q 3283 4032 3283 3462 
Q 3283 3104 3056 2816 
Q 2829 2528 2464 2458 
L 2464 2438 
Q 2739 2406 2947 2246 
Q 3155 2086 3273 1840 
Q 3392 1594 3392 1299 
Q 3392 698 3024 349 
Q 2656 0 2016 0 
L 595 0 
z
M 1158 2682 
L 1914 2682 
Q 2285 2682 2499 2880 
Q 2714 3078 2714 3418 
Q 2714 3757 2502 3955 
Q 2291 4154 1920 4154 
L 1158 4154 
L 1158 2682 
z
M 1158 518 
L 1952 518 
Q 2355 518 2588 732 
Q 2822 947 2822 1318 
Q 2822 1702 2588 1942 
Q 2355 2182 1952 2182 
L 1158 2182 
L 1158 518 
z
" transform="scale(0.015625)"/>
      <path id="JetBrainsMono-Regular-bd" d="M 1613 -64 
Q 1069 -64 749 240 
Q 429 544 429 1037 
Q 429 1363 576 1606 
Q 723 1850 985 1987 
Q 1248 2125 1587 2125 
L 2675 2125 
L 2675 2400 
Q 2675 3085 1926 3085 
Q 1594 3085 1389 2963 
Q 1184 2842 1171 2624 
L 595 2624 
Q 627 3040 982 3312 
Q 1338 3584 1926 3584 
Q 2566 3584 2908 3277 
Q 3251 2970 3251 2419 
L 3251 0 
L 2682 0 
L 2682 640 
L 2669 640 
Q 2618 314 2342 125 
Q 2067 -64 1613 -64 
z
M 1754 422 
Q 2176 422 2425 627 
Q 2675 832 2675 1184 
L 2675 1677 
L 1651 1677 
Q 1370 1677 1194 1507 
Q 1018 1338 1018 1056 
Q 1018 762 1213 592 
Q 1408 422 1754 422 
z
" transform="scale(0.015625)"/>
      <path id="JetBrainsMono-Regular-110" d="M 621 0 
L 621 4672 
L 1197 4672 
L 1197 2067 
L 1869 2067 
L 2854 3520 
L 3514 3520 
L 2381 1843 
L 3578 0 
L 2906 0 
L 1882 1568 
L 1197 1568 
L 1197 0 
L 621 0 
z
" transform="scale(0.015625)"/>
      <path id="JetBrainsMono-Regular-10d" d="M 576 -1152 
L 576 -627 
L 1370 -627 
Q 1766 -627 1987 -409 
Q 2208 -192 2208 198 
L 2208 2995 
L 544 2995 
L 544 3520 
L 2784 3520 
L 2784 198 
Q 2784 -422 2400 -787 
Q 2016 -1152 1370 -1152 
L 576 -1152 
z
M 2432 4154 
Q 2221 4154 2099 4262 
Q 1978 4371 1978 4557 
Q 1978 4749 2099 4861 
Q 2221 4973 2432 4973 
Q 2643 4973 2764 4861 
Q 2886 4749 2886 4557 
Q 2886 4371 2764 4262 
Q 2643 4154 2432 4154 
z
" transform="scale(0.015625)"/>
      <path id="JetBrainsMono-Regular-11b" d="M 589 0 
L 589 3520 
L 1165 3520 
L 1165 2848 
L 1171 2848 
Q 1216 3200 1459 3392 
Q 1702 3584 2106 3584 
Q 2637 3584 2950 3257 
Q 3264 2931 3264 2368 
L 3264 0 
L 2688 0 
L 2688 2266 
Q 2688 2669 2486 2883 
Q 2285 3098 1939 3098 
Q 1581 3098 1373 2874 
Q 1165 2650 1165 2240 
L 1165 0 
L 589 0 
z
" transform="scale(0.015625)"/>
     </defs>
     <use xlink:href="#JetBrainsMono-Regular-1a"/>
     <use xlink:href="#JetBrainsMono-Regular-bd" transform="translate(60 0)"/>
     <use xlink:href="#JetBrainsMono-Regular-e1" transform="translate(120 0)"/>
     <use xlink:href="#JetBrainsMono-Regular-110" transform="translate(180 0)"/>
     <use xlink:href="#JetBrainsMono-Regular-10d" transform="translate(240 0)"/>
     <use xlink:href="#JetBrainsMono-Regular-122" transform="translate(300 0)"/>
     <use xlink:href="#JetBrainsMono-Regular-122" transform="translate(360 0)"/>
     <use xlink:href="#JetBrainsMono-Regular-11b" transform="translate(420 0)"/>
    </g>
   </g>
   <g id="text_23">
    <!-- 59 -->
    <g style="fill: #0076c0" transform="translate(658.9008 198) scale(0.105 -0.105)">
     <defs>
      <path id="JetBrainsMono-Bold-2dd" d="M 1120 0 
L 2214 1888 
Q 2138 1830 2035 1788 
Q 1933 1747 1728 1747 
Q 1344 1747 1027 1932 
Q 710 2118 524 2448 
Q 339 2778 339 3213 
Q 339 3674 534 4016 
Q 730 4358 1085 4547 
Q 1440 4736 1920 4736 
Q 2400 4736 2755 4544 
Q 3110 4352 3305 4003 
Q 3501 3654 3501 3187 
Q 3501 2912 3382 2557 
Q 3264 2202 3059 1837 
L 2048 0 
L 1120 0 
z
M 1920 2387 
Q 2278 2387 2496 2614 
Q 2714 2842 2714 3226 
Q 2714 3603 2496 3830 
Q 2278 4058 1920 4058 
Q 1562 4058 1344 3830 
Q 1126 3603 1126 3226 
Q 1126 2842 1344 2614 
Q 1562 2387 1920 2387 
z
" transform="scale(0.015625)"/>
     </defs>
     <use xlink:href="#JetBrainsMono-Bold-2d9"/>
     <use xlink:href="#JetBrainsMono-Bold-2dd" transform="translate(60 0)"/>
    </g>
   </g>
   <g id="text_24">
    <!-- Programmers -->
    <g style="fill: #667085" transform="translate(565.7472 228.294) scale(0.095 -0.095)">
     <defs>
      <path id="JetBrainsMono-Regular-f5" d="M 1030 -1152 
L 1030 -627 
L 2022 -627 
Q 2323 -627 2496 -457 
Q 2669 -288 2669 0 
L 2669 320 
L 2682 896 
L 2662 896 
Q 2611 582 2361 412 
Q 2112 243 1734 243 
Q 1190 243 876 588 
Q 563 934 563 1536 
L 563 2278 
Q 563 2880 876 3232 
Q 1190 3584 1734 3584 
Q 2112 3584 2361 3405 
Q 2611 3226 2662 2912 
L 2675 2912 
L 2675 3520 
L 3245 3520 
L 3245 0 
Q 3245 -531 2915 -841 
Q 2586 -1152 2016 -1152 
L 1030 -1152 
z
M 1907 723 
Q 2266 723 2470 947 
Q 2675 1171 2675 1568 
L 2675 2240 
Q 2675 2637 2470 2861 
Q 2266 3085 1907 3085 
Q 1542 3085 1340 2873 
Q 1139 2662 1139 2304 
L 1139 1504 
Q 1139 1146 1340 934 
Q 1542 723 1907 723 
z
" transform="scale(0.015625)"/>
     </defs>
     <use xlink:href="#JetBrainsMono-Regular-7a"/>
     <use xlink:href="#JetBrainsMono-Regular-140" transform="translate(60 0)"/>
     <use xlink:href="#JetBrainsMono-Regular-122" transform="translate(120 0)"/>
     <use xlink:href="#JetBrainsMono-Regular-f5" transform="translate(180 0)"/>
     <use xlink:href="#JetBrainsMono-Regular-140" transform="translate(240 0)"/>
     <use xlink:href="#JetBrainsMono-Regular-bd" transform="translate(300 0)"/>
     <use xlink:href="#JetBrainsMono-Regular-11a" transform="translate(360 0)"/>
     <use xlink:href="#JetBrainsMono-Regular-11a" transform="translate(420 0)"/>
     <use xlink:href="#JetBrainsMono-Regular-e1" transform="translate(480 0)"/>
     <use xlink:href="#JetBrainsMono-Regular-140" transform="translate(540 0)"/>
     <use xlink:href="#JetBrainsMono-Regular-144" transform="translate(600 0)"/>
    </g>
   </g>
   <g id="text_25">
    <!-- 13 -->
    <g style="fill: #00a98f" transform="translate(658.9008 228.294) scale(0.105 -0.105)">
     <defs>
      <path id="JetBrainsMono-Bold-2d5" d="M 538 0 
L 538 723 
L 1754 723 
L 1754 3898 
L 531 3002 
L 531 3898 
L 1606 4672 
L 2554 4672 
L 2554 723 
L 3533 723 
L 3533 0 
L 538 0 
z
" transform="scale(0.015625)"/>
      <path id="JetBrainsMono-Bold-2d7" d="M 1875 -64 
Q 1184 -64 781 297 
Q 378 659 378 1280 
L 1184 1280 
Q 1184 986 1369 810 
Q 1555 634 1882 634 
Q 2202 634 2387 810 
Q 2573 986 2573 1280 
L 2573 1632 
Q 2573 1946 2390 2122 
Q 2208 2298 1882 2298 
L 1293 2298 
L 1293 2938 
L 2368 3968 
L 544 3968 
L 544 4672 
L 3245 4672 
L 3245 3994 
L 2170 2963 
Q 2733 2886 3056 2537 
Q 3379 2189 3379 1632 
L 3379 1280 
Q 3379 659 2972 297 
Q 2566 -64 1875 -64 
z
" transform="scale(0.015625)"/>
     </defs>
     <use xlink:href="#JetBrainsMono-Bold-2d5"/>
     <use xlink:href="#JetBrainsMono-Bold-2d7" transform="translate(60 0)"/>
    </g>
   </g>
   <g id="text_26">
    <!-- 0 solved -->
    <g style="fill: #667085" transform="translate(565.7472 169.488) scale(0.11 -0.11)">
     <defs>
      <path id="JetBrainsMono-Bold-2d4" d="M 1920 -64 
Q 1466 -64 1133 109 
Q 800 282 617 595 
Q 435 909 435 1331 
L 435 3341 
Q 435 3763 617 4076 
Q 800 4390 1133 4563 
Q 1466 4736 1920 4736 
Q 2374 4736 2707 4563 
Q 3040 4390 3222 4076 
Q 3405 3763 3405 3341 
L 3405 1331 
Q 3405 909 3222 595 
Q 3040 282 2707 109 
Q 2374 -64 1920 -64 
z
M 1920 627 
Q 2253 627 2451 819 
Q 2650 1011 2650 1331 
L 2650 3341 
Q 2650 3661 2454 3853 
Q 2259 4045 1920 4045 
Q 1581 4045 1385 3853 
Q 1190 3661 1190 3341 
L 1190 1331 
Q 1190 1011 1388 819 
Q 1587 627 1920 627 
z
M 1920 1952 
Q 1728 1952 1613 2057 
Q 1498 2163 1498 2355 
Q 1498 2547 1613 2646 
Q 1728 2746 1920 2746 
Q 2112 2746 2227 2646 
Q 2342 2547 2342 2355 
Q 2342 2163 2227 2057 
Q 2112 1952 1920 1952 
z
" transform="scale(0.015625)"/>
      <path id="JetBrainsMono-Bold-dd" d="M 1600 -64 
Q 1088 -64 771 301 
Q 454 666 454 1280 
L 454 2234 
Q 454 2854 768 3219 
Q 1082 3584 1600 3584 
Q 1965 3584 2217 3398 
Q 2470 3213 2573 2880 
L 2547 3686 
L 2547 4672 
L 3347 4672 
L 3347 0 
L 2566 0 
L 2566 640 
Q 2470 307 2220 121 
Q 1971 -64 1600 -64 
z
M 1901 627 
Q 2208 627 2377 812 
Q 2547 998 2547 1338 
L 2547 2182 
Q 2547 2522 2377 2707 
Q 2208 2893 1901 2893 
Q 1594 2893 1424 2726 
Q 1254 2560 1254 2214 
L 1254 1306 
Q 1254 960 1424 793 
Q 1594 627 1901 627 
z
" transform="scale(0.015625)"/>
     </defs>
     <use xlink:href="#JetBrainsMono-Bold-2d4"/>
     <use xlink:href="#JetBrainsMono-Bold-3be" transform="translate(60 0)"/>
     <use xlink:href="#JetBrainsMono-Bold-144" transform="translate(120 0)"/>
     <use xlink:href="#JetBrainsMono-Bold-122" transform="translate(180 0)"/>
     <use xlink:href="#JetBrainsMono-Bold-113" transform="translate(240 0)"/>
     <use xlink:href="#JetBrainsMono-Bold-169" transform="translate(300 0)"/>
     <use xlink:href="#JetBrainsMono-Bold-e1" transform="translate(360 0)"/>
     <use xlink:href="#JetBrainsMono-Bold-dd" transform="translate(420 0)"/>
    </g>
   </g>
  </g>
 </g>
 <defs>
  <clipPath id="p18445c7585">
   <rect x="55.296" y="55.44" width="490.752" height="269.28"/>
  </clipPath>
 </defs>
</svg>
